<mxfile host="65bd71144e">
    <diagram id="bUWHiPIioEOoABbemxXt" name="Page-1">
        <mxGraphModel dx="1195" dy="762" grid="0" gridSize="10" guides="1" tooltips="1" connect="1" arrows="1" fold="1" page="1" pageScale="1" pageWidth="2339" pageHeight="3300" background="#A7BCD1" math="0" shadow="1">
            <root>
                <mxCell id="0"/>
                <mxCell id="1" parent="0"/>
                <mxCell id="2" value="&lt;font color=&quot;#000000&quot; style=&quot;background-color: rgb(167 , 188 , 209)&quot;&gt;AWS Cloud&lt;/font&gt;" style="sketch=0;outlineConnect=0;gradientColor=none;html=1;whiteSpace=wrap;fontSize=12;fontStyle=0;shape=mxgraph.aws4.group;grIcon=mxgraph.aws4.group_aws_cloud;strokeColor=#AAB7B8;fillColor=none;verticalAlign=top;align=left;spacingLeft=30;fontColor=#AAB7B8;dashed=0;" vertex="1" parent="1">
                    <mxGeometry x="244" y="290" width="210" height="220" as="geometry"/>
                </mxCell>
                <mxCell id="10" style="edgeStyle=none;html=1;fontColor=none;labelBackgroundColor=none;labelBorderColor=none;noLabel=1;strokeColor=#000000;" edge="1" parent="1" source="3">
                    <mxGeometry relative="1" as="geometry">
                        <mxPoint x="50" y="409" as="targetPoint"/>
                    </mxGeometry>
                </mxCell>
                <mxCell id="3" value="" style="shape=image;verticalLabelPosition=bottom;labelBackgroundColor=#ffffff;verticalAlign=top;aspect=fixed;imageAspect=0;image=data:image/png,iVBORw0KGgoAAAANSUhEUgAAAFwAAABcCAMAAADUMSJqAAAAolBMVEX///9cTuVAQLJNPOPJxvVOPuPZ1vg3N7BKOOPt7feOjsz08/1TROQ9PbKppPBaTOVXSOTU0fcvL674+P7l4/omJqyIf+ugmu69ufOknu+SiuzDv/RxZejv7vwqKq2tqPFHR7SEhMmsrNmDeupFMuNoW+eYmNHd2/e6uuDV1etcXLt6esagoNQbG6p+delgYby2svJOTraak+3Hx+Z5b+lwcMJNZwtqAAADC0lEQVRoge3Y23aqMBAG4BCI0AISQTwfqtWt1rZaa9//1fYE6gEIkmByVblrV/st1++QmQlyHSN9vM4YqX7OuEHNrqsNhw9v9PThRkCWDW048ItOWxsO0Xv9SBtuBF4w1IYDb45W2nDgnYGKqufjUJZeUx8O0dOWNhw+fF8nDsG0a5flOKrEh6RmWf6Lnypxy6xVlms79AVwAqelbFlu3iYYi+GsLKcStLsNfSyOs7K0BOno/cPGWAZnr+ynUPTrlxBjWRxOSzKoLMvNboJxHRx+JvuKsCc+rouzRnXjRJjHNsb1cRb9a0mj+v4KMb4PZ9EfOPR4d51IbRx+beZnBHf2kafr4qxRZaKf23aBTvGIkkASZ9lcxrNC2Fc4QlPPk8WBd7pRSdgZHI0HJpXF2YEDdTPnhJ3FEVodHU42t3HDhOHsmZd2DoemQL0CrwxHqFmIXiEO0eeyUYlD9Esz0IYj1DM8fTiK+oRqw2FSeT1FrwFHqLFMTwQtOEL7wNOHI7frUG04RH909OEItYyuPhxFK404eyyzLm5X4+1laaO6ifuTrchkv6cljeoWHr5tBGh43IPDbVTluG2vxegkm6PJyaYM9+NnwV1neEj+0OJEz8f9yY/wqmAtfnf1faFRcfHw61s8EYsEZJRck7iDBa3C7XguTqcvUbBIR6D2KJNNAbfDmdximb6hlDSTfxsuSTke/8je1Jxef2Kk0U8v2WTx8EUi7BwOg3+6j447p/HsGrdDqbDzOIs+3UdXo7TqL7gfzmrd62VORY+m++gwmRHOeLwTfNdv4pCNkeyjURei/8VDWz5sLs6WomNSE+MOcRg+Cd/r0rxmQZ1DEnDLgPVitq0+tWVwiD5Ioo+g9O+hS9ocRH/3DVUpnlwFKLg4LW3QlHTvvji90f0Xd98pV4wWD/yBP/AH/sfw1oI7+KvBUWPEG/wV4Qj1SPGGShkOIxDhZaMGv74m0YDDF1tcitThnH1UJQ77aDZ6pThE/3kdvWKcTZ+X6JXjsBSdo9eAo6fTVYAOnEVPxfD/iXQ/eoU3HygAAAAASUVORK5CYII=;" vertex="1" parent="1">
                    <mxGeometry x="22" y="394" width="60" height="60" as="geometry"/>
                </mxCell>
                <mxCell id="4" value="" style="endArrow=classic;html=1;fontFamily=Times New Roman;fontSize=14;fontColor=#000000;strokeColor=#000000;shadow=1;" edge="1" parent="1">
                    <mxGeometry width="50" height="50" relative="1" as="geometry">
                        <mxPoint x="80" y="438.5" as="sourcePoint"/>
                        <mxPoint x="250" y="439" as="targetPoint"/>
                    </mxGeometry>
                </mxCell>
                <mxCell id="24" value="" style="edgeStyle=none;html=1;labelBackgroundColor=none;labelBorderColor=none;fontColor=none;strokeColor=#000000;" edge="1" parent="1" source="5" target="3">
                    <mxGeometry relative="1" as="geometry"/>
                </mxCell>
                <mxCell id="5" value="" style="outlineConnect=0;dashed=0;verticalLabelPosition=bottom;verticalAlign=top;align=center;html=1;shape=mxgraph.aws3.cli;fillColor=#444444;gradientColor=none;" vertex="1" parent="1">
                    <mxGeometry x="24" y="239" width="56" height="60" as="geometry"/>
                </mxCell>
                <mxCell id="7" value="Deploy client infrastructure" style="text;html=1;strokeColor=none;fillColor=none;align=center;verticalAlign=middle;whiteSpace=wrap;rounded=0;fontColor=#000000;" vertex="1" parent="1">
                    <mxGeometry x="90" y="400" width="150" height="30" as="geometry"/>
                </mxCell>
                <mxCell id="8" style="edgeStyle=none;html=1;exitX=1;exitY=0.5;exitDx=0;exitDy=0;exitPerimeter=0;entryX=1;entryY=0.635;entryDx=0;entryDy=0;entryPerimeter=0;fontColor=#000000;" edge="1" parent="1" source="5" target="5">
                    <mxGeometry relative="1" as="geometry"/>
                </mxCell>
                <mxCell id="11" value="Terraform" style="text;html=1;strokeColor=none;fillColor=none;align=center;verticalAlign=middle;whiteSpace=wrap;rounded=0;fontColor=none;" vertex="1" parent="1">
                    <mxGeometry x="20" y="460" width="60" height="30" as="geometry"/>
                </mxCell>
                <mxCell id="14" value="Client infrastructure" style="text;html=1;strokeColor=none;fillColor=none;align=center;verticalAlign=middle;whiteSpace=wrap;rounded=0;fontColor=none;fontStyle=0" vertex="1" parent="1">
                    <mxGeometry x="294.13" y="254" width="130" height="30" as="geometry"/>
                </mxCell>
                <mxCell id="32" value="" style="edgeStyle=none;html=1;labelBackgroundColor=none;labelBorderColor=none;fontColor=none;strokeColor=#000000;" edge="1" parent="1" source="17" target="5">
                    <mxGeometry relative="1" as="geometry"/>
                </mxCell>
                <mxCell id="17" value="" style="shape=actor;whiteSpace=wrap;html=1;glass=1;labelBackgroundColor=default;fontFamily=Times New Roman;fontSize=14;strokeWidth=2;fillColor=none;strokeColor=#000000;" vertex="1" parent="1">
                    <mxGeometry x="30" y="80" width="40" height="60" as="geometry"/>
                </mxCell>
                <mxCell id="25" value="Invokes" style="text;html=1;strokeColor=none;fillColor=none;align=center;verticalAlign=middle;whiteSpace=wrap;rounded=0;fontColor=none;" vertex="1" parent="1">
                    <mxGeometry x="50" y="330" width="60" height="30" as="geometry"/>
                </mxCell>
                <mxCell id="28" value="Administrator" style="text;html=1;strokeColor=none;fillColor=none;align=center;verticalAlign=middle;whiteSpace=wrap;rounded=0;fontColor=none;" vertex="1" parent="1">
                    <mxGeometry x="70" y="80" width="60" height="30" as="geometry"/>
                </mxCell>
                <mxCell id="31" value="" style="shape=image;verticalLabelPosition=bottom;labelBackgroundColor=#ffffff;verticalAlign=top;aspect=fixed;imageAspect=0;image=data:image/png,iVBORw0KGgoAAAANSUhEUgAAAbAAAAIkCAYAAAB/UX7iAAAMamlDQ1BJQ0MgUHJvZmlsZQAASImVVwdYU8kWnluSkJDQAhGQEnpHpBcpIbQIAtLBRkgCCSXGhKBiL4sKrl1EwIauiii6FkAWFbGXRbH3xYKKsi4WFEXlTUhA133le+f75s5/z5z5T7kz994BQLOXK5HkoloA5InzpXHhwcyU1DQm6SkgAl1ABsbAjsuTSVixsVEAymD/d3l/AyCK/qqTguuf4/9VdPgCGQ8AZDzEGXwZLw/iZgDwSp5Emg8AUaG3mJovUeC5EOtKYYAQr1HgLCXeqcAZStw0YJMQx4b4MgBqVC5XmgWAxj2oZxbwsiCPxmeIXcR8kRgATUeIA3hCLh9iReyOeXmTFbgMYltoL4EYxgO8M77jzPobf8YQP5ebNYSVeQ2IWohIJsnlTv8/S/O/JS9XPujDGjaqUBoRp8gf1vBWzuRIBaZC3CXOiI5R1BriXhFfWXcAUIpQHpGotEeNeDI2rB9gQOzC54ZEQmwEcZg4NzpKpc/IFIVxIIarBZ0myuckQKwP8WKBLDReZbNZOjlO5Quty5SyWSr9Wa50wK/C1wN5TiJLxf9GKOCo+DGNQmFCMsQUiC0LREnREGtA7CzLiY9U2YwqFLKjB22k8jhF/JYQxwnE4cFKfqwgUxoWp7IvzpMN5ottFoo40Sq8P1+YEKGsD3aSxx2IH+aCXRaIWYmDPAJZStRgLnxBSKgyd+y5QJwYr+LpleQHxynn4hRJbqzKHjcX5IYr9OYQu8sK4lVz8aR8uDiV/HimJD82QRknXpjNHR2rjAdfAaIAG4QAJpDDlgEmg2wgau2q74J3ypEwwAVSkAUEwEmlGZyRPDAihtd4UAj+hEgAZEPzggdGBaAA6r8MaZVXJ5A5MFowMCMHPIU4D0SCXHgvH5glHvKWBJ5Ajegf3rmw8WC8ubApxv+9flD7TcOCmiiVRj7okak5aEkMJYYQI4hhRDvcEA/A/fAoeA2CzRX3xn0G8/hmT3hKaCM8IlwntBNuTxLNl/4Q5RjQDvnDVLXI+L4WuDXk9MCDcX/IDplxBm4InHB36IeFB0LPHlDLVsWtqArzB+6/ZfDd01DZkV3IKHkYOYhs++NMDXsNjyEWRa2/r48y1oyherOHRn70z/6u+nzYR/5oiS3GDmBnsOPYOawJqwdM7BjWgF3Ejijw0Op6MrC6Br3FDcSTA3lE//A3+GQVlZS51Lh0unxWjuULpuUrNh57smS6VJQlzGey4NdBwOSIec6OTFcXV1cAFN8a5evrLWPgG4Iwzn/TLYB73F/c39/f9E0X+QmAg2Zw+7d/09lcga8J+J4+u5InlxYodbjiQoBvCU240wyACbAAtjAfV+AJ/EAQCAWjQQxIAKlgIoxeCNe5FEwFM8E8UARKwAqwFpSDTWAr2An2gP2gHjSB4+A0uAAug+vgLlw9HeAl6AbvQR+CICSEhtARA8QUsUIcEFfEGwlAQpEoJA5JRdKRLESMyJGZyAKkBFmFlCNbkGrkV+Qwchw5h7Qht5GHSCfyBvmEYigV1UWNUWt0BOqNstBINAGdgGahU9BCdCG6DC1Dq9DdaB16HL2AXkfb0ZdoDwYwdYyBmWFOmDfGxmKwNCwTk2KzsWKsFKvCarFG+JyvYu1YF/YRJ+J0nIk7wRUcgSfiPHwKPhtfipfjO/E6/CR+FX+Id+NfCTSCEcGB4EvgEFIIWYSphCJCKWE74RDhFNxLHYT3RCKRQbQhesG9mErMJs4gLiVuIO4lNhPbiI+JPSQSyYDkQPInxZC4pHxSEWk9aTfpGOkKqYPUq6auZqrmqhamlqYmVpuvVqq2S+2o2hW1Z2p9ZC2yFdmXHEPmk6eTl5O3kRvJl8gd5D6KNsWG4k9JoGRT5lHKKLWUU5R7lLfq6urm6j7qY9VF6nPVy9T3qZ9Vf6j+kapDtaeyqeOpcuoy6g5qM/U29S2NRrOmBdHSaPm0ZbRq2gnaA1qvBl3DWYOjwdeYo1GhUadxReOVJlnTSpOlOVGzULNU84DmJc0uLbKWtRZbi6s1W6tC67DWTa0ebbr2SO0Y7Tztpdq7tM9pP9ch6VjrhOrwdRbqbNU5ofOYjtEt6Gw6j76Avo1+it6hS9S10eXoZuuW6O7RbdXt1tPRc9dL0pumV6F3RK+dgTGsGRxGLmM5Yz/jBuPTMONhrGGCYUuG1Q67MuyD/nD9IH2BfrH+Xv3r+p8MmAahBjkGKw3qDe4b4ob2hmMNpxpuNDxl2DVcd7jfcN7w4uH7h98xQo3sjeKMZhhtNbpo1GNsYhxuLDFeb3zCuMuEYRJkkm2yxuSoSacp3TTAVGS6xvSY6QumHpPFzGWWMU8yu82MzCLM5GZbzFrN+sxtzBPN55vvNb9vQbHwtsi0WGPRYtFtaWo5xnKmZY3lHSuylbeV0Gqd1RmrD9Y21snWi6zrrZ/b6NtwbAptamzu2dJsA22n2FbZXrMj2nnb5dhtsLtsj9p72AvtK+wvOaAOng4ihw0ObY4ERx9HsWOV400nqhPLqcCpxumhM8M5ynm+c73zqxGWI9JGrBxxZsRXFw+XXJdtLndH6owcPXL+yMaRb1ztXXmuFa7X3GhuYW5z3BrcXrs7uAvcN7rf8qB7jPFY5NHi8cXTy1PqWevZ6WXple5V6XXTW9c71nup91kfgk+wzxyfJp+Pvp6++b77ff/yc/LL8dvl93yUzSjBqG2jHvub+3P9t/i3BzAD0gM2B7QHmgVyA6sCHwVZBPGDtgc9Y9mxslm7Wa+CXYKlwYeCP7B92bPYzSFYSHhIcUhrqE5oYmh56IMw87CssJqw7nCP8BnhzRGEiMiIlRE3OcYcHqea0z3aa/Ss0ScjqZHxkeWRj6Lso6RRjWPQMaPHrB5zL9oqWhxdHwNiODGrY+7H2sROif1tLHFs7NiKsU/jRsbNjDsTT4+fFL8r/n1CcMLyhLuJtonyxJYkzaTxSdVJH5JDklclt6eMSJmVciHVMFWU2pBGSktK257WMy503NpxHeM9xheNvzHBZsK0CecmGk7MnXhkkuYk7qQD6YT05PRd6Z+5Mdwqbk8GJ6Myo5vH5q3jveQH8dfwOwX+glWCZ5n+masyn2f5Z63O6hQGCkuFXSK2qFz0Ojsie1P2h5yYnB05/bnJuXvz1PLS8w6LdcQ54pOTTSZPm9wmcZAUSdqn+E5ZO6VbGindLkNkE2QN+brwp/6i3Fb+k/xhQUBBRUHv1KSpB6ZpTxNPuzjdfvqS6c8Kwwp/mYHP4M1omWk2c97Mh7NYs7bMRmZnzG6ZYzFn4ZyOueFzd86jzMuZ9/t8l/mr5r9bkLygcaHxwrkLH/8U/lNNkUaRtOjmIr9Fmxbji0WLW5e4LVm/5Gsxv/h8iUtJacnnpbyl538e+XPZz/3LMpe1LvdcvnEFcYV4xY2VgSt3rtJeVbjq8eoxq+vWMNcUr3m3dtLac6XupZvWUdbJ17WXRZU1rLdcv2L953Jh+fWK4Iq9lUaVSyo/bOBvuLIxaGPtJuNNJZs+bRZtvrUlfEtdlXVV6Vbi1oKtT7clbTvzi/cv1dsNt5ds/7JDvKN9Z9zOk9Ve1dW7jHYtr0Fr5DWdu8fvvrwnZE9DrVPtlr2MvSX7wD75vhe/pv96Y3/k/pYD3gdqD1odrDxEP1Rch9RNr+uuF9a3N6Q2tB0efbil0a/x0G/Ov+1oMmuqOKJ3ZPlRytGFR/uPFR7raZY0dx3POv64ZVLL3RMpJ66dHHuy9VTkqbOnw06fOMM6c+ys/9mmc77nDp/3Pl9/wfNC3UWPi4d+9/j9UKtna90lr0sNl30uN7aNajt6JfDK8ashV09f41y7cD36etuNxBu3bo6/2X6Lf+v57dzbr+8U3Om7O/ce4V7xfa37pQ+MHlT9YffH3nbP9iMPQx5efBT/6O5j3uOXT2RPPncsfEp7WvrM9Fn1c9fnTZ1hnZdfjHvR8VLysq+r6E/tPytf2b46+FfQXxe7U7o7Xktf979Z+tbg7Y537u9aemJ7HrzPe9/3objXoHfnR++PZz4lf3rWN/Uz6XPZF7svjV8jv97rz+vvl3Cl3IFfAQw2NDMTgDc7AKClAkCH5zbKOOVZcEAQ5fl1AIH/hJXnxQHxBKAWdorfeHYzAPtgs54LuWFT/MInBAHUzW2oqUSW6eaq5KLCkxCht7//rTEApEYAvkj7+/s29Pd/2QaDvQ1A8xTlGVQhRHhm2ByiQLdXT5gLfhDl+fS7HH/sgSICd/Bj/y+iK5BL8UZP3AAAAIplWElmTU0AKgAAAAgABAEaAAUAAAABAAAAPgEbAAUAAAABAAAARgEoAAMAAAABAAIAAIdpAAQAAAABAAAATgAAAAAAAACQAAAAAQAAAJAAAAABAAOShgAHAAAAEgAAAHigAgAEAAAAAQAAAbCgAwAEAAAAAQAAAiQAAAAAQVNDSUkAAABTY3JlZW5zaG90UdOJZQAAAAlwSFlzAAAWJQAAFiUBSVIk8AAAAdZpVFh0WE1MOmNvbS5hZG9iZS54bXAAAAAAADx4OnhtcG1ldGEgeG1sbnM6eD0iYWRvYmU6bnM6bWV0YS8iIHg6eG1wdGs9IlhNUCBDb3JlIDYuMC4wIj4KICAgPHJkZjpSREYgeG1sbnM6cmRmPSJodHRwOi8vd3d3LnczLm9yZy8xOTk5LzAyLzIyLXJkZi1zeW50YXgtbnMjIj4KICAgICAgPHJkZjpEZXNjcmlwdGlvbiByZGY6YWJvdXQ9IiIKICAgICAgICAgICAgeG1sbnM6ZXhpZj0iaHR0cDovL25zLmFkb2JlLmNvbS9leGlmLzEuMC8iPgogICAgICAgICA8ZXhpZjpQaXhlbFlEaW1lbnNpb24+NTQ4PC9leGlmOlBpeGVsWURpbWVuc2lvbj4KICAgICAgICAgPGV4aWY6UGl4ZWxYRGltZW5zaW9uPjQzMjwvZXhpZjpQaXhlbFhEaW1lbnNpb24+CiAgICAgICAgIDxleGlmOlVzZXJDb21tZW50PlNjcmVlbnNob3Q8L2V4aWY6VXNlckNvbW1lbnQ+CiAgICAgIDwvcmRmOkRlc2NyaXB0aW9uPgogICA8L3JkZjpSREY+CjwveDp4bXBtZXRhPgoRXB6qAAAAHGlET1QAAAACAAAAAAAAARIAAAAoAAABEgAAARIAADpfdceM3AAAOitJREFUeAHsnQmcFMX5/l+u5Vru+xTITzAIiHiLCIgoiGe8DUbQv6JGDBKvaARRIxgRvFBBIxiMGKOCAqKCCgKC3MshIMqyci+w7AUssND/egpr7JmdnmN3enZ2+qkPQ1d3Vb1d/a3efuatrqkqZ6kgDCQQAwLz58+XCy+8UBYuXCjnn3++tojba9CgQTJhwoQYnCFyE9nZ2TJ27FgZMWJE5IWYkwRIoEwRKEcBK1PtldCVXblypXTp0qWIgO3cuVOaNm0acd0heuXKlYs4f7CMEM3U1FR54YUX/JIjtR1pPrvxYGWCHbOXYZwESKAEBNQfGAMJxITAihUr4M1bygPz2XvooYd0PCcnx7r11luts846y7rjjjusjIwMq0ePHtadd97py/vmm29avXv3tpQIWi+++KJ1/PhxnQa7F110kc5/yy23WJmZmdbEiROtc88911KenVVYWGjdd9992nZaWpr1yiuv6Hq0adPGuuGGG6zDhw9bixYt8tlGnbKysnzntUeC1WHw4MHa9m233Wbl5eVZ27dv13ZxToRgtsHgiiuusO6++269RV369Omj7eDaEHBdYPDqq6/qff5HAiQQHQGJLjtzk4AzASNg/fv3tx577DEtVBA0EyBibdu21Q/tDRs2aAE6cOCATv7mm2/0g/7YsWPW6tWrtQAtWbLE2rdvn1WjRg0L+Y8ePWo1bNjQeuKJJ3SZrl27WsOHD9dx5MO5FixYoPevvfZaa+jQoToOsYKA5Ofn60/z5s0t5ZnpNPt/TnU4dOiQPu+wYcN82SGMu3fv1kIYzPamTZu0EKNO7733nvXwww9bX375pa7j999/r+1AWDt16qQF2GeYERIggYgJ/PZ0ibgIM5JAcAJGwKZMmWLhAb58+XItUvbc8EzwUMdDf/Pmzb6kAQMGaO/k/vvvt/CBUD3//PPW+PHjrfbt2/vyLV26VIsZDsBbMwJWUFDgKGDvvPOOtmdsw95VV13ls2kiTnVA+tNPP21B+ODt7dq1y7rrrrt0sVC2r7/+eu2BGfvYwmuEV4bwySefWM8995yO8z8SIIHoCVDAomfGEg4EjIDZuxC/+OKLIrkhHhAoNdDCl9atWzefGPkOqsgjjzyihc1+zMQjFTA1kMOCtxYuONUB5bZu3aoFcvbs2bp701xjKNvw0oYMGeJ32o8++kjbgfcGgUN3JAMJkEDxCFDAiseNpYIQCCZgyIZuwnnz5ukSa9euta655hotYPfcc4/PCkQN3WkmwNOZPn269cEHH+gHvv2d1YcffqizXXrppb7uROOBqZGQOs3ehfjyyy9rG+hmNGHatGkm6ts61cFkQPpNN91kwbZ5PxfKdjABQzcoPDl4YRAwBhIggeIToIAVnx1LBhDAYAZ0D86dO9cvBe9/ICwYAAGvac+ePbr7DHmNh4aBDNh/9tlnrfXr11t/+9vf9GCQ/fv36+N44KPL8fXXX7eMgOFdG0QMwXg2n332md7HYA980tPT9blhG4Kybt06C12c6J4MDE51MPlgG3bMIAwcX7VqlT4WzDYEynQ1GhvYjhs3TpeZMWOG/TDjJEACURKggEUJjNmDE1i2bJkehIEHPEYRYsQhvBXE0V0I8cJIQoxCPHjwoB6Bh7wYoAFPCwMaIALmGLrmTICo4Tg+GMEI7wwB5XAM9o34YOQfRji+9dZbOg3vteAtjRkzxmcDwgdhDAyh6oC88J7w7g6jIO0hmG2IE+qFT6BQ5ebm6uOwx0ACJFB8AvwdmHoCMiQOASUOUr16df2x1wo/TFa3udSpU8d+WJQQ6d+M1apVS9T7JFHdc750JZRSrVo1374ahShqRKE0aNDAdyxYxKkOyIs0JUpFikVqGwXxg+85c+bwR9ZFKPIACURHgAIWHS/mJoFiE/jPf/4jyssTbN99911p0qRJsW2xIAmQgAgFjHcBCcSJwGWXXSYbN24U9dMAufjii+N0Vp6GBJKXAAUseduWV5aABNANWtJpshLwslglEigVAhSwUsHOk5IACZAACZSUAAWspARZngRIgARIoFQIUMBKBTtPSgIkQAIkUFICFLCSEmT5Mk9ATSAsFSpUKPPXwQsgAa8RoIB5rcV5vX4E1Az0on5kLVdeeaXfce6QAAkkPgEKWOK3EWtYTALBRvzZj+GHzmpmEBk5cmQRAbPnM6cPdsykcUsCJBB/AhSw+DPnGSMkgFkz1Gz0oiYJ1jNu1KtXT9Q6Y6KWM9G/pbr99tsFHzXju6g1tkRNHyVqQmBRy5SImhtR1Bpi0rhxY/3DYTWRr16d+bvvvpOrr75a1FyIcuGFF8rMmTNFLXEil1xyiZ4ZY/HixaLW/RLk79Wrl6g5GUXNzSijRo2SZs2a6dk+8FsuNSmxVKpUKcIrYTYSIAFXCKhvlQwkkJAEMJ8illPB3IdY0FL9AVhmsl6nxSwx8z3yYWFLE8eM9jt27LDuvfdenTZ69GgLqzJjKRPkxbpcCE4LXwZbnBILbzKQAAmULgFO5lu6/Hl2BwKYRR7ikpaW5sthFzCntcAwcS9mmsfqy5gdH5MFv/HGG9rGa6+9pifj9RlUEbuARbs4pd0O4yRAAvEnQAGLP3OeMQICs2bN0uKCmetNiETAkBdLpmCZFcwSj7W3sAQLAoTMvrozjtkFLNrFKVGegQRIoPQIUMBKjz3PHIIAlmeBuKAr0AS7gDktZqnej2mvC94XAgQLnhdCOAGLdnFKbZT/kQAJlBoBDuJQT0WGxCOgugL1bO3nnXeeqLW+RK3xJRdccIGod2DSt29fUe/HRC2MKZ9//rl8/PHHolZJ1mlYPqVHjx56AAd+39WzZ09R77tErRMmX3/9tai1xWTr1q2+C65Zs6YoT03OOOMMKV++vHTu3FnUumQyfPhwWb16tWzbtk0efPBBfQxLuWAiXgYSIIEEIVBq0skTk0AYAhMmTNBemPpTsdTIQB03gzicFrPEgAt4XSiDQSAY7IFFJadNm2ap0Yb6uBpR6Dsz8iCv6WaMdnFKnyFGSIAE4k6AHliCfJFgNYITwIKV6q9C6tatq2dxNx4YcjstZon8WAATHtORI0e04ZSUlOAnUEeLu/Clo0EmkAAJxIUABSwumHmSkhKAKKGLT3lecvnll5fUHMuTAAkkAQEKWBI0ohcu4ZlnnpEnnnhCv8tSgy2kVatWXrhsXiMJkEAIAhSwEHCYRAIkQAIkkLgEKGCJ2zasGQmQAAmQQAgCFLAQcJhEAiRAAiSQuAQoYInbNqwZCZAACZBACAIUsBBwmEQCJEACJJC4BChgids2rBkJkAAJkEAIAhSwEHCYRAIkQAIkkLgEKGCJ2zasGQmQAAmQQAgCFLAQcJhEAiRAAiSQuAQoYInbNqwZCZAACZBACAIUsBBwmEQCJEACJJC4BChgids2rBkJkAAJkEAIAhSwEHCYRAIkQAKlTSA/P1/USuPSvHlzqVKlil5GCEsFMYhQwHgXkAAJkECCEcDyQWqRVZkxY4b87ne/k9TUVPnggw/0KgxYTuiBBx4o9RoXFhZKxYoVS60eOD8FrNTw88QkQAIkEJwAlg6aNGmSzJ07VwsYch07dkwee+wxLRr/+Mc/gheM01EsGDt27FgZMWJEnM5Y9DR//vOfKWBFsfAICfgTyM7fLek7Vkt23m7Jzs+UVk06Su3URtK6aSf/jNwjgRgQWLdunXTo0EFGjhwpjz76qJ9FrEI+atQoee655/yOw2MrV66c37FwO8HKBDsWzM6gQYO0V/jCCy/4JUda3q9QFDvG/pQpUzQHemBRwGNWbxGAaE2a+bjjRddKrS+nt+0lPc/o75iHCSQQLYGXXnpJhgwZIgsWLJCuXbsWKW7vunvrrbd01+K+ffvkT3/6k9x///3y7rvvyujRo+Uvf/mLfPrpp/L1119rb+mOO+7QthYvXizDhg0TlOnVq5f87W9/k/Xr12tBaNasmWzfvl02btwoa9eu1XaQtnz5cr2YLMTz1VdflcGDB0ubNm3kzDPPlMmTJ8uKFSuK2Az2nu7999+X1157TY4ePSo9evSQZ599Vgvvpk2b5OmnnxZsK1SooPN06nTiC+Ljjz8uv/zyi6Snp8vFF18sl1xyifTp00fy8vLogRW5O3jA8wTgcU2dN1a27FjnxwKCVadmo6DHb79ilPbK/ApwhwSKQeCGG26Q//3vf3Lo0CE9aMOY+Oc//6m7EbF/8sknS/369WXMmDEybdo0gdeGB/6SJUt0nvPOO0+6dOki48ePl3feeUd/cnNz9QAQiM7q1au12VNOOUW/T7vyyivlxhtv1EL03nvvyapVq6Rfv37SvXt3OXz4sCxcuFAuuugiLW5NmzaV6667Tk466SSBBwavMJjNoUOHmqrr7bfffit//OMftUht3rxZTj31VJk9e7acffbZctZZZwnE7bTTTtP1mThxouzdu1fXA2KM93+oA94JwjMdN26cTJgwQUS5ZAwkQAI2Ai+8N8AaNuFy/UF8xcYvbamWtT9vl/58vWyyX77N29P88nGHBIpD4Nxzz7XUE986cOCAX3HlcVgNGza02rZtayE+YMAASz34LeV16Q/Snn/+eV0G5adOnarjX331lc+eEjNtw5Rp3769ddVVV+l8119/vXX33Xf7zrl7925LDSSxlLdkvf3229qG8sp0+rXXXmspgdLxUDZ9xlTkpptustTgE98hJUZWVlaWrmeNGjV8x5XQ6XMpcbNM3dX7NuvIkSPWsmXLdD7lBVpKsC0KmA8bIyRgWW/PeMQnShAoe4BA4QMBMwH7RvCwZSCBkhKAMEGAlDdVxBTEzQhOt27drOHDhxfJgwMQBCNgS5cu1fZycnIsNejCUt2SQcsoz89SXZd+aZ988onVu3dvS3k82saaNWt0ul3AQtm0G1MeoaXe6dkP6bgamKLraxKU56nPpQayaNG65ZZb9L7qsrTS0k58SaSAGVrcksCvBCBGxvP6eO4LRbiYtECPLFy5IoZ4gARCEJg1a5Z+YAcTJ4gPxAMBQgYvxAT1bsyaPn263nUSsJdfflnbVu+/TDFLdUHqeKCAwQOCVwcvKTMzU5dTXY86r13AQtn0nURF7r33XgsiZgKECl6Yeoembat3XCbJUr95s/79739b6t2XdfDgQUu9y9N1gYghUMB8qBghgRMEwnlSTgKG0vbuRAgaAwmUhIDxOiAi9mAXMDzE4ampgRCWGmhhqcEYlnpPZB0/flwfV+/RdNHvv/9e70O01LstHYdYqfdmlhrN5+t2RBfiXXfd5TvdU089pUVDvQOzPvzwQ13uiy++sHbu3GmhfvhAdObPn+9o02dMRVAW9VXvrqwff/zRUgNBtEDt2bNHH//Xv/6ls6t3X9ojg3ipd1/WG2+8oY+b8ujShA2IK7sQ7YQZ9zSBUAIFMKHS0a1o0ilgnr6NYnLxECEIFN53QVjUYA1LjSK08M4KooMAYYEQQRTgcaErD0EN9tDH+vbtay1atEgLDfL89a9/1eIGW9jHp3///pYahKE9IQgCPvCKENBdB7vIBzHDFt2W6IpUox/1Pro7UddgNrUR238FBQXaa4Qd2MX1maAGbehjeK+Gc0CsECBgyIuux1tvvdUyIoe6wQ6H0SsKDCSw8sfZMm3eyxrEAze/FXRE4fA3r9DpV3e/Xw2f710E2sSZj+oRij263Mih9UXo8EBxCSjBkB07dogSF6lbt26R33up7j2pXr26/kR6DkxPhVGODRo0CFkEIxDxA+pq1aoJymBGEBNU154+bvYjtak8OMEQe0yLZQ9qkIYgrWXLlr5rxPkxrB7Xj7pWrVrVVwTnp4D5cDDiZQJ2ARtx53SNAsPp7WHslP+nd8MJWKump8rAfqPsRRknARJwgQAFzAWoNFn2CHyz/F2Zu+K/gt96Db15oppxY7cYwQq8GicBmzpvjKz68Rvp3LanXNPd/zcwgTa4TwIkUHICFLCSM6SFJCBgn3VjQL9/6B8sRytgY6YMlJz8vRSwJLgfeAllgwAFrGy0E2vpMgG7xwUPC/Mc7s/170I0VcBsHJgLMTCEe0cWmJ/7JEACJSNAASsZP5ZOIgJmEIbpRozm0kz3Ico4DQKJxh7zkgAJhCdAAQvPiDk8QsDejRjNe6zilvMIVl4mCbhGgALmGloaLosE7J5UJMPh7eJVHM+tLDJinUkgGgIYho+h8G4ECpgbVGmzzBLAu7C3pz+qB2PgIiBK13R/oMjaX8i3cuNsPXLRXCwGf3CNMEODWxI4QUD9CFqw+GS9evVijoQCFnOkNFjWCQQTJ1wTxMxpOZVgIlfWObD+yUdATW7h+5Gw/eqcjtvzRBq328K6YliyBUujUMAiJch8JBADAua3YaFMRdLNGKo800ggHgS+++67oAtWYqHKwMUt1YzzeiFLNfO9bNiwQS9YqaaM0utvVapUSTADxoMPPijbtm3TC1+qKaxELZUigef44Ycf9EwdsHfFFVfotcCw5lgsAz2wWNKkraQjAG8MAe+6tuxco+O1UxtKqyad2F2oafC/skDgp59+KrJg5cMPP6wXkwxc3FItn6JXPsZUU2qmeS1Mb775pl58EisiY1FKiBtWZcbCm2o+Rr0QppqzsMg5br75Zjn99NOTywP7bvmX8vHscdL0pLpqzrhbgs4rVxZuCtYxeQlgaimEYHMe2q8aAgdxw7uvYL8Ns+dl3LsEVkwZJXm//CCndewgNS74k1So2TjuMCA06MZTi1Tqc6vlSuShhx7S3hMOzJkzR6/0jBWesaKzmgxYe2dqmRY9B+PAgQPl8ccfl0aNGoma/V53DULkME8ivDh4YoHngDhileWk6EKEcP135suSuWe3VEypKG1Oqa9B4t1C66YdpfPJF/NbrSbC/0qTQODIwhM/XG6oBKqhr1rZ+Zl62ihzgF2JhgS3dgIQrvQlc+RAdpbUrZ4iZ55UR8rXrC8pLTrGXcjQfde0aVNRqxvrKmJwxZdffikLFiywV1nHL7jgArn88stFzQKv9//whz9IRkaGjBw5Ui699FJB9+Dvf/97ndarVy/drahmvtcemP0cSSFgduEypOwCZo5hCzE7vW0vzuZth8J4XAnYJ/aN9MTR/G4sUpvMV3YJ2IXLXIURMLMfbyELFLBXXnlF7r//flHrhGkPC/VSKzCLWihTIGD9+vUTtcaYri7egWG2+dGjR0vr1q31ezG1FItOGzRokMBLU0udJJeABRMufcXqPycBM+n0ygwJb21Nl1ykVx2uiy9SO/Z8dgHDtFJ49wWPa8uOdTqbuTfhka388SvOf2iH5/F4MOEySAIFzByHkFXt0EuqdezjatciuvewjMn48eP1qdWaWtK5c2fd7adWfxZ4SxiYgQEaELAzzjhDXnrpJawZKY0bN5YXX3xR8E4LXYL4oAsSAflQ/sorr9S27OdAV6Naw0x3OaK7Ee/DYhlcGcSx4odv5Z0P/6m7Cp0qG07A7OWMV3Z6u958z2AHk2Rxe9ddpJfmhudjFzCztIpTfcz0U27Uw+mcPJ54BEIJl6mtk4CZdDeFbObMmXL77bfrU7399tvau8IOuhPVIpL6ODwqeGW1a9fWAgZBGzJkiBY2rEWmVkaW8uXLy7Jly3T5yy67TNRimHLOOedoTy3YOSBaHTp00N4bvDsM/ohlcEXA/j76Vvk5Y0PIekYjYMaQ+ebbqknHsC/XTRluyw4Bu3BEWms31t6y14MCFmlLeDPfj7PflTWfTdLvuMIRCCdgprybQmbOYd8GW4jSdCGqVZD1IpKBv+FSqzDL1q1bpUmTJpKSkmI3VySO7kXkD5evSMEIDpQpAbNfD70yO43kiNuFwyxp4nRlU+eN1V16FDAnQjweDwKfP3WzZKZvjOhUkQqYMRZvITPnxfbss8/Wv9164okn7IcTLl5mBcxOEg+xzif3oldmh1IG43YBCzeju+m6o4CVwYZOoiq7KWAGU7yFbOLEibq7sVOnTnrI/fnnn2+qknDbpBAwQ9V4ZfyRqSFStrYUsLLVXqytSDwEzHCOt5CZ8ybyNqkEzA4aYsYfSduJJH48VgJmVkaO5IqD3Sf2evAdWCQUvZsnngJmKFPIDAmRpBUwc4l4QPFH0oZGYm/twlHcLkS7jUivNnAEod0GBSxSismVb0faXClY/400PvU8Pbzd6epKQ8BMXYyQ1eg6wBzy3DbpBczeoqaLsecZJ36AZ09jvPQJ2IUjFgKG2TFq12jkeGGrNn2lB4JQwBwReS4BwrVo0jN6VGGHpjWlae2qeuaMirUaSpVTexcRs9IUMNM4XhYyTwmYaXB6ZYZEYm1jLWCRiiAFLLHug9KoTd6udFk44TG/EYVGwOz1gVhAzCqpqaDww+PZLz7gV8aeNzAe7SjEwPLh9r0oZJ4UMHMjQMiG3jzR7HJbygQoYKXcAB48fTDhMhiCCZhJM9tlGfsl68ARsxty67aAmZN7ScgoYBQwc9+X+pYCVupN4LkKhOoCLKsCZhrRC0JWIgHDvHVffPu+mtiwQNq26qKnecKyEm7NxGEaJlZbemCxIhkbOxSw2HCklcgJJLOAGQrJLGTFErB1G1bKdys+k68XTdOMWp/SQCqlVNBxiMK61T/KwfzQbnVxppIyDRKrLQUsViRjY4cCFhuOtFKUwLHcXUEnyvWCgBkayShkEQvYzj1bZMbs/8i3y2dI4ZFCw0Rv7QKGA9s2Z1HA/AhxJxICFLBIKDFPNATMO66Gh3dK85Yt9DpcKS06SYVajaVyy84hf4hc1rsQnTglk5BFLGChugUpYE63Co9HQ4ACFg0t5g1FwAiXmacwmBjhQb5kzSbHQRjBygSeMxEHcQTW0Wk/GYSMAsZBHE73d9yPU8DijjwpT4gZ4he/N8bv2pzEKJQAOZWxGw5V3p4P8XiNQgw8b7h9CFnDQZPDZUvIdAoYBSxhbkwKWMI0RZmuCNbmWvvlB37X4CRGoQTIqYzdcKjy9nyIJ6qAoW6NH5qFTZkLFDAKWMLctBSwhGmKMl0RClj0zUcB+3UUItBxEEf0NxBLiFDAeBfEgkCyCNh/l22T5nWqSkv1aVG3WizQONqggFHAHG8OJkRGgAIWGSfmCk0gWQRswvx0yS04MeK7ZpWKWsQ6NKnhiphRwChgof+qmBqWAAUsLCJmiIBAMgqY/bKNmMEzO1VNOByLQAGjgMXiPvK0DQqYp5s/ZhefLAL2c4PzZMvmn2Xl4oWObCBmtapWEgw4aVG3qtSsUskxb6gEChgFLNT9wbQICFDAIoDELGEJJIuANRg00Td7yL5ffpRNS2bL8q+mS/rPPzkygKDBK4v2vRkFjALmeFMxITICdgGLrIRIq6anysB+o3zZi2Mj1HIqPsNhIoE2wmRnsosEklHA7LggZnu3bZKfl8+X9B9WOQqa6WqM5L0ZBYwCZr/HGC8GgfQdq2XSzMejKhkoHIliI6qLYOaYEkh2AQuEZbyzn1cvkew9u4MKmhGz/2tQXU5umBpogr8DM5P5ggyH0Re5P3ggQgIQoC07V0eYWyTY6trwwrLzdpe6jYgrwIwxJeA1AQuEZwRt7ZfvS0FujlRTzkX58uVE/dPhkvZFVymnB0YPLPA+4j4JkEApEPC6gBnkTjPtU8AMoV+3nMw3AAh3IyYAj2vuyvcizl8WMtZObSjXdB9aFqqalHVMZgHDJMV5uzOkUetTfAM8nBqRAmYjw9nobTAYjRmB4gy6iNnJXTIUOLDEpdPQrAOBZBGwbbU7SPnUepK5KU3MrPrmknt0aSctB08xu0G3FDAbFgqYDQajMSMAD2zVpjkxs5cIhlo16Sint+2dCFXxZB2SRcDm/7RXDh05FrQNLzy5vtTufLHUvuzhoOk4SAGzoaGA2WAwSgIkkLAEvCJgVSpVkOrn3yg1ug4I2hYUMBsWCpgNBqMkQAIJS8BLAoa1vFLP/6NU69inSHtQwGxIKGA2GIySAAkkLAEvCRgaASJW7+bniwzqoIDZblEKmA0GoyRAAglLwGsChoYItqoyBcx2i1LAbDAYJQESSFgCXhQwNEZKi/ZS96YXfO1CAfOhEKGA2WAwSgIkkLAEvCpgaBD7oA4KmO0WpYDZYDBKAiSQsAS8LGBoFCNiFDDbLUoBs8FglARIIGEJeF3A8D6sVt+/yjeTnivyA2g0GqeSCrh1OZVUABDukgAJlJjAli1bZODAgTJ8+HDp0aNHxPa8LmAABRFbunmP7MvMLMKNAhaAhAIWAIS7JEACMSEwadIkLWLNmzeXyZMnRyRkFLAT6AuOHpNvN+0t0g4UsAAkFLAAINwlARKICQF4YaeffrpkZ2dLlSpVpH79+mGFjAL2G/od2Ydk7Y7c3w6oGAXMD4cIBSwACHdJgARiRgBe2D333CMFBQXaZjgho4D5o/95zwH5eU++7yAFzIfiRIQCFgCkGLsjRoyQJ598shglWYQEvEsA78a++eYbPwAUMD8cgq7EpRn7fRMDU8D8+dADC+DBXRIggdgRgAc2ePBgyc8/4UWkpqYKPlOmTAn6TowC5s+eHpjiwWH0/jcF90iABOJDoE6dOvodWDjhMrWhgBkSIlkHj8iyLft/O6Bi9MD8cPAdWACOEu3ipXVGRkaJbLAwCSQLgc8//1xGjRoldevWlWHDhkmfPn2kXbt2IS+PAnYCD0ch2m6TRPbAKlZM8dW0kopXqlBZ7yNuAuIVzfFKlSVF7R8pPKKTjx49LIXHDstRs6+2R3/dr16lpgy9eaIxwy0JkEAcCfTs2ZO/AwvCGwtaYj2wUGF9TnnZun1nkSz0wAKQxGoQB4TIiA5EyMRxOrsA6f1fRSigKmFFCfkPFfw2IiewfOB+rdT6FLBAKNwngQQmQA9MpM6NIzkTh/0eddsD27UtR3KzDkm16tWlevVqUlkJVOVqlSRFbatWrao/FSuVlwoVyjt6S4W/elD2epc0TgErKUGWJ4H4EvC6gHEuxCD3W7wELMipfYeat6kj1VJPdA/6DrocoYC5DJjmSSDGBLwsYPYlVTiZr+3GooDZYDBKAiSQsAS8KmB28ULjUMBstygFzAaDURIggYQl4EUBw+S99W5+XirUbOxrFwqYD4X7vwMz78BspywSZRdiESQ8QAIkEEDAiwKGQRuVW3b2I0EBs+GgB2aDwSgJkEDCEvCagAUTLzQOBcx2i1LAbDAYJQESSFgCXhIwM+IwWGNQwGxUKGA2GIySAAkkLAGvCFjNNh2l7k0vOLYDBcyGhgJmg8EoCZBAwhJIFgHbVruDHDp8VA5k7ZbM9I1+vHt0aSctB0/xOxa4QwGzEaGA2WAwSgIkkLAEkkXAGgya6DeqMG9XuuTtzpD8zG3S4KT/kzptzw3ZBhSwX/Hk5GfK06/cLdt3bA0KLBZTSSXyKMTObXtJNTUnYo2qtaVG9frSslH7oBx4kARIoPQJJKuARUvWUwIGkco5sFfy8DmULQcLcpX7mic5+bs1t92ZO2XHtkzZtWeXFB4p9GOZzAKG+Rl/16yj3/ViJ6VSNalauYb+NKrTUgsbjlPcQIGBBEqPgNcF7FjubinYtFAyln0l+3ZulUMHD0k+PgcO6kZJysl87x52kTRt0kwaNqovNVNrOd59mME9P++AbNu+TXKz82X//iy/BS3xwN+evl9y9uc52kBCxZSK0uaU+r48ieiB4Vrq12oimE4qXACX3Py90vF3F0rPM/qHy850EiABlwh4TcAgWIW5mVK4e5Mc3blejh85FJRsQW62FObtlZSCnCLpjR+aVeRYWThQzlIBFb158Fm++taqU0NatmwhjRo2kapVqviOB4vkKTE7Xu6QXqqketUaOsvi75fInsw9wbL7jiWigJnZ8Kspz6p+7aa+ujpFjGjty/ltyYIeXW6kgDkB43ESiAMBLwiY8bIKs7bKsTyHZ+3RAjl+KE+swsNybP+JnjQn/EklYOYiK6dUkZq1a0iLFs21mFWsWM4khdyuXrtGMtJ/CZknUQQMolWrej3dFWgEOFTFg4mWPT8FzE6DcRKIP4FkFLCIBAuolWgdU16WdShfjhcciBh+UgqY/eohZg0a1JemzRtKvbqNJZyY4UG/P2uf43uz0hQwI1o1VdcgFrYMF4xo5RzYJ+GWbKGAhaPJdBJwl0CyCFiNnreLlKsghzNWhAZWTNGyG016AbNfLMSscbOG0rxZc6lbp449KWgcAoD3ZllZWbJrZ6Z+bxZPAYNgoVsQi2JG0jWIizCidVANZIlmAUwKWNBbgAdJIG4EkkXAUlqeqlbydXiF86toHcvfr7yuEyvLlwSwpwTMDgrvyyIZ/GEvg/dmELPqtSr4uu4i6XaMZjJf42VhpGAkXYOonxGtoxiQobyt4gQKWHGosQwJxI5AsgrY8UO5qmswN+z7rOKQ9KyA2WEVR8xM+YyMrbJ16zbtnZljgdtwAmZEK9KuQWPfCJd9MIZJi3ZLAYuWGPOTQGwJJIuAVWx6shYsq/CoHM/Lii2kAGsUsAAgZiRj86atwr4vsxeFd7Y7c5fs3buvyEjGQAErTtegOVcsRcvYxJYCZqfBOAnEn0CyCFg8yZV5ARs17n5J27Ao5szMSMbWrVtENPjDXoFDBQW6qzFz1x79A+rGzWvoUZHRjBq023NLtMw58Huxa7o/IK2bdjKHuCUBEogzAQpY9MDLvIDhkjf/sl4+mP66K0IG+9GOZEQZEyA+CJGMGjRlsDWiFckIQnu5aOIQrtPVdFP8AXM01JiXBNwh8OPsd2Xxe2P8jHdoWlOa1q7qdww7yzL2S9aB4IMgnMrYjYQqb8+HeN3qKXLmSeEHvQWWc3sfqzk3HDTZ7dO4Yt/3Q2a7dbeFDOeKdiSjvX7h4ka0oh1BGM5uYDqFK5AI90kgMQhg4tuFEx7zzeIeTIzw4F6yZpNnBQzXX7VDL6nRdUBiNFoxahFUwIydeAgZzlWSwR+mrka0SjKC0NgKt6VwhSPEdBJIDAI70ubK6k/GS8PDO6W5ml2oYq2GUqlFR0lp0Vkqt+zsuGoxah9M9AKvqix6YMkgXKYdQgqYyRQvIcP5jJg1a9Ys7DRWyG+EKxYjCGEvVKBwhaLDNBJIXAL7f1wcdPkRpxnbcSXJJmDJJFzmTotIwEzmeAoZzuk0kjGeoqXrwXdc5hbglgSSioAXBCwZhcvchFEJmCkUbyHzDf5oUU+yD4aelNLUMRZbelyxoEgbJJC4BJJZwJJZuMwdVSwBM4XjLWSBvwMz9Yj1lsIVa6K0RwKJSSBwsIe9lpF0IS7fa8m+zEx7Mcd4vEYhekG4DOQSCZgxEi8hc1vAKFymRbklAW8RwND7zYtm+kYt4uqdBCylRXs9EASj90J5cIEE3RYwLwmXYRsTATPG3BYytwSMwmVakFsS8DYBu5DZBcwuWnZCiSBgXhQu0wYxFTBj1C0hi7WAUbhMi3FLAiRgJwAhK5/xnTT6/dkhfydVmgLmZeEybeWKgBnjsRayWAkYhcu0ELckQAIlIVAaAkbh+q3FXBUwcxojZOs2L5XCI4XmcNTbkgoYhStq5CxAAiQQgkA8BYzCVbQh4iJg5rQQsq8WfCzfLp9RLCErroBRuEwLcEsCJBBLAvEQMAqXc4vFVcBMNYorZNEKGIXLEOeWBEjADQJuC1j1828M+Q7OjWsqSzZLRcAMoGiFLFIBo3AZwtySAAm4SQCDPdZ8NkkOZIdfcDKaYfQUrsharVQFzFQxUiELJ2AULkOUWxIggXgRwI+hd65ZGFbIIhEwCld0rZYQAmaqHE7InASMwmUIcksCJFBaBMIJWSgBo3AVr9USSsDMJTgJWaCAUbgMMW5JgAQShYCTkAUTMApXyVotIQXMXFKgkBkBo3AZQtySAAkkKoFAIbMLGISrWsc+UqFm40StfpmoV0ILmCFohCzr6EY5u8Ml0vOM/iaJWxIgARJIaAJGyLbPmyJn9r2ewhXD1ioTAhbD66UpEiABEiCBJCFAAUuShuRlkAAJkIDXCCS8gB07dky2b98uzZo1kwoVKsj+/fulTp06UlhYKHPnzpWzzz5batasGZN2syxLFi1aJCeddJI+X0yMRmDkyJEj8tVXX0mPHj2katWqEZRgFhIggbJIYM2aNfo51r59+5DVL61nUchKJWKiApWQIT093brhhhusa665xho2bJh11VVX6U/fvn2tvLw865ZbbrEUT2vDhg0xq//QoUO1zc8++yxmNpXQhrSVmZmprxHXsnPnzpB5mUgCJBB7AuoLsnXffffpv/3mzZtbY8eOtY4ePRrzE40bN06fY/To0WFtu/EsCnvSMphBErHOu3fvttq0aWO9+eabftX7+uuvrbZt2+pjmzdvjrmAHT9+POYCNmLECGvv3r1+1xG4s2LFCn1eClggGe6TQHwIHDp0SP8NPvbYY66esEuXLlYkAubGs8jVCysl4xEJGGDGIkRqB14XhCpY/rvuuktXZevWrTEVMHMueEKx8sDgHcJeOAFbu3YtBSwWNxhtkEAJCOBvdeTIkcWyYJ4f4QqfddZZYQXM2Ar2LDJp4c7jlXS54oorrKysLOv666/XD1F015kwbdo069Zbb7UAHflyc3N1Err20JVntkifOHGiTpsxY4bVv39/LUCwuW/fPl3u2WeftRo2bGjNnj3bwrcQxJcuXWpO5duiyw0Nh/MGC3D3EQIF7MCBA9Y999yj6wnxmzJlis6Hep177rnWhAkTLNhGVwHqm5aWptNRbsCAAdall16q621umldeeUXnQ1dlRkaGde211+p9eFQIzz33nN5ft26dpfq1tQ0wwbVBkPbs2WN16tRJXwvYvf/++7pb4u9//7t10UUXWV27drVQNwQjYF988YWl+sYtdGPAK2MgARKIH4FwAoZnGJ5L+Bt95JFHdMXUO3P9auPuu++28LcNG6GeqXj2IB9eiSDvvffea6l34NqW07MIiU7PYl3Qw/8phmJ169ZNiwlcW+zjvQxgIr5gwQJf/IMPPtCo0FgmQKTwwM3OzrZWrVqlu/5ycnKs/Px8/YCHN4X4G2+8oe3dfvvt+uEMUYEABgaIAc77zDPPBCb57QcKGITm5Zdf1nlQT9gwIgCxGD58uE6DoJrrwoHbbrtNixri8+fP12nwwNTgES1AQ4YMQZK1ePFinYb6IXz66afW008/reMQJNzcCGCJmxIBIolzGQ8M14Q/AHyLGj9+vE7DlwcjYBDSTZs2WWowhxZTbYT/kQAJxIUA/ladPDDzbDh8+LCFVxnIiy/TP//8s37O1ahRQ/fc4As60oI9U3EREDB8ef/www+tO+64Q+edNWuWvj6nZ1GoZ3FcwCTwSQQwzbsmNAjg48GLh+zzzz+vxQffMtBAECGEXbt26S08CORfuHCh3n/ggQf04Aq9o/7DAxvpEDTzMIc4Ijz55JPaM9I7tv/mzJmjy7z44ou2o0WjdgHDOzOcZ/369TrjwYMH9b7xJnv37u0TsIKCAp0GYf7ll190HJ4PAkQLdkwX4uuvv65vNnhuavSjTjNCCLExwgRvD92FeC8HsTTCbK7Z5APDqVOn6nPhpkQc5zQCZt6BgQ1EjIEESCB+BPC37yRgeMbgeYDBHW+//bZ+FuDvFuGmm26y7F/qnZ6pyAsBs78Dw7v+wYMHh3wWhXoWw6aXg6C7zQgYvAE0ovFc0D2GrrUxY8ZoLwsNaAI8BeTFw9YENA48IRPMtxZ8K1m9erXObwQMNpE/MBi75l1XYLrZtwsYBAh1+eGHH0yy7qaDl4fgJGD45oNyEB4TsG8EDHXF/rx586xXX31V2zTepr2LE94n9uGtoWsgmIAhj922OR+2gQKGGzwYG3sZxkmABGJLAH+fTgKGM33yySf6WWJGE5reGHhOdgEL9UwNFDD01uBYuGdRqGdxbCmULWuOAgYvCx4DvC8E9Pu+9tprOo5vIRAHfMxwU3gUcInxgDcB745wU8DNjlTA4JHgXLgJ4C0FhuXLl+vuSruApash9zjP5MmTfdkhgOiuRIAIP/HEEzpuPDCIK7o8UQ7vp0zAPt7jmQBBws2JrfFQYRddiCbA68I7MQR4oehWRQj0wPBty/SdIx1eG25MChhoMJBA6RLA334wAcMXfHwJh2eFL/nmiy2eaQglETB82cWX31DPolDP4tIlVvpnFzxUjWeFri404vfff2+pHwnruHnIovHQpYh9DGRAvp9++klfAbwLdC9Onz7dVwYJ8GQwkAEuMAZsoMyOHTt0GXgZSAsWUA5577zzTr+RiPDOIBAIZhi9ceNhy+4VYTAFvjEhYFAJRAzho48+0raNl4Xr79evn+7mRBcezmsXNJPfDLhAXuRBXziCGX6Lmxw3Nt6HIQ+6M+ERIi/i8GoxRBdfCuDRLVu2TF8fuifNzbtt2zZtE5yd2OgM/I8ESCCmBDCQAn+rgcPo0c2PL6dPPfWUFjD83eP9FfKi5wfPDPQ64cu7CU7PVKTD2xo1apTOClt4HkAcEZyeRaGexbqgh/9T7SD6vQ0EBuKAfTzw8TCGJ4R9CAO8DIgYRAHHABvuL0QGD9t33nlHe2M4hjTYwnscvGfCIA5800A5dLPhnRkaEvtmYEhgG8BDgheGc+IbDt45Pfroo1ow4PWZHx7iOL4Vof7Ii314S2ZQBewaYUU6ugJxXowUgodobkbcSBAfpEHsIJYIeJ8GrxIeJgLym4Ed+oD6Dx4aysEjBQ/EIYIoCxY4LzxZeIq4JqRjixsTIzvBF8dwTXY2EE8GEiABdwmgZ8X83eLvEAMw8Cwwf6voKkRvCp4RSIeYmXwzZ87Uf994RuD9vRmshudl4DMVYwHw5RR28AzBl2zTq4UrdHoWoZcm2LPYfHl3l05iWw85lZSquijvSk/dhOmOEFJSUvQ21H/qoSzq4S2NG5d8qQCcH9NHtW7dOtQpdZry9ER1LUqTJk2K1BM2ypUrJ7Vq1dJTU6kbzmcPdVXep7Ro0UKUF6S3vkQVUUPipUGDBvqQEk9RYia1a9e2Z/FNcQVmsFe9enWdrjwsQb0MN8TNOVAfBhIggbJBQHlMol5xSLVq1UR9KZfU1NRiVRx2lGjq6eoqV67sZ8PpWVTcZ7Gf8STcCSlgSXi9vCQSIAESIIEkIUABS5KG5GWQAAmQgNcIUMC81uK8XhIgARJIEgIUsCRpSF4GCZAACXiNAAXMay3O6yUBEiCBJCFAAUuShuRlkAAJkIDXCFDAvNbivF4SIAESSBICFLAkaUheBgmQAAl4jQAFzGstzuslARIggSQhQAFLkobkZZAACSQmATV3rKhlmBKzcmW8VhSwMt6ArD4JkEBiE8CUcZgKiiH2BChgsWdKiyRAAiTgI0AB86GIeYQCFnOkNEgCJEACvxEwArZlyxZp1arVbwmMlZgABazECGmABEiABJwJGAFT6wBK9+7dnTMyJWoCFLCokbEACZAACUROgAIWOatoc1LAoiXG/CRAAiQQBQEKWBSwosxKAYsSGLOTAAmQQDQEKGDR0IouLwUsOl7MTQIkQAJREaCARYUrqswUsKhwMTMJkAAJREeAAhYdr2hyU8CiocW8JEACJBAlAQpYlMCiyE4BiwIWs5IACZBANATw26+ePXtKenq6cBh9NOQiy0sBi4wTc5EACZBA1AQoYFEji6oABSwqXMxMAiRAApEToIBFzqo4OSlgxaHGMiRAAiQQAQEjYOvXr5e0tDQ555xzIijFLJESoIBFSor5SIAESCBKAhSwKIFFmZ0CFiUwZicBEiCBSAlQwCIlVbx8FLDicWMpEiABEghLgAIWFlGJMlDASoSPhUmABEjAmQAFzJlNLFIoYLGgSBskQAIkEIQABSwIlBgeooDFECZNkQAJkICdAAXMTiP2cQpY7JnSIgmQAAloAhQwd28ECpi7fGmdBEjAwwQoYO42PgXMXb60TgIk4GECFDB3G58C5i5fWicBEvAwAQqYu41PAXOXL62TAAl4mAAFzN3Gp4C5y5fWSYAEPEyAAuZu41PA3OVL6yRAAh4mQAFzt/EpYO7ypXUSIAEPE6CAudv4FDB3+dI6CZCAhwlQwNxtfAqYu3xpnQRIwMMEKGDuNj4FzF2+tE4CJOBhAhCwgQMHyqxZs7igpQv3AQXMBag0SQIkQAIgMHfuXBkxYgQFzKXbgQLmEliaJQESIAEKmLv3AAXMXb60TgIk4GECFDB3G58C5i5fWicBEvAwASNgU6dOlYyMDDnttNM8TCP2l04Biz1TWiQBEiABTYAC5u6NQAFzly+tkwAJeJgABczdxqeAucuX1kmABDxMgALmbuNTwNzlS+skQAIeJkABc7fxKWDu8qV1EiABDxOggLnb+BQwd/nSOgmQgIcJUMDcbXwKmLt8aZ0ESMDDBChg7jY+BcxdvrROAiTgYQIUMHcbnwLmLl9aJwES8DABCpi7jU8Bc5cvrZMACXiYAAXM3cangLnLl9ZJgAQ8TIAC5m7jU8Dc5UvrJEACHiZAAXO38Slg7vKldRIgAQ8ToIC52/gUMHf50joJkICHCVDA3G18Cpi7fGmdBEjAwwQoYO42PgXMXb60TgIk4GECFDB3G58C5i5fWicBEvAwgUmTJsm8efNk7NixXNDShfuAAuYCVJokARIgARCggLl7H1DA3OVL6yRAAh4mQAFzt/EpYO7ypXUSIAEPEzACNnLkSMnJyZF27dp5mEbsL50CFnumtEgCJEACmgAFzN0bgQLmLl9aJwES8DABCpi7jU8Bc5cvrZMACXiYAAXM3cangLnLl9ZJgAQ8TIAC5m7jU8Dc5UvrJEACHiZAAXO38Slg7vKldRIgAQ8ToIC52/gUMHf50joJkICHCVDA3G18Cpi7fGmdBEjAwwQoYO42PgXMXb60TgIk4GECFDB3G58C5i5fWicBEvAwAQqYu41PAXOXL62TAAl4mAAFzN3Gp4C5y5fWSYAEPEyAAuZu41PA3OVL6yRAAh4mQAFzt/EpYO7ypXUSIAEPE6CAudv4FDB3+dI6CZCAhwlQwNxtfAqYu3xpnQRIwMMEKGDuNj4FzF2+tE4CJOBhAhQwdxufAuYuX1onARLwMAEKmLuNTwFzly+tkwAJeIjAli1bpFWrVr4rHjFihI4PGjRIcnJypF27dr40RkpOgAJWcoa0QAIkQAKaAASsW7duMnnyZOnRo4fYBSwtLU0WL14s3bt312lEVnICFLCSM6QFEiABEvAROO+887RQXXfddZKamqqPV61aVV5//XXp3LmzrFy50peXkZIRoICVjB9LkwAJkIAfAXhhrVu3ltq1a0thYaFUrFhRsrOztZhNnz6d3pcfrZLtUMBKxo+lSYAESKAIAeOF2RPofdlpxCZOAYsNR1ohARIgAR+BuXPnSt++faWgoEAfQ1ci3otdffXVvjyMlJwABazkDGmBBEiABIoQsHth7du3l4ULF+puxSIZeaDYBChgxUbHgiRAAiTgTMB4YXgHxndfzpxKkkIBKwk9liUBEiCBEATghaEbkSMPQ0AqQRIFrATwWJQESIAEQhGAF4aA34QxxJ4ABSz2TGmRBEiABEggDgQoYHGAzFOQAAmQAAnEngAFLPZMaZEESIAE/AisnDNOdqSnSadOHaRRhxslpXojv3TuFI8ABax43FiKBEiABMISgHClff+55OdmSa3UFOnctr4Sr3pSrUF7CllYeuEzUMDCM2IOEiABEoiKgF24TEEjYGafQmZIFH9LASs+O5YkARIgAT8CwYTLZAgUMHMcQla7VXep0/oidi0aKBFuKWARgmI2EiABEnAisHHVbFk55zXZuyfTKYuvC9EpA4XMiYzzcQqYMxumkAAJkEBIApEIlzHg5IGZdLOlkBkS4bcUsPCMmIMESIAE/AhEI1ymYKQCZvJTyAwJ5y0FzJkNU0iABEjAj0BxhMsYiFbATDkKmSFRdPv/AQAA//8/uFhyAAAyRUlEQVTtnQmcFMXd9/+7Ozt7uxd7AMouiC4BFEQR0Sigr/j6wSQeLwajBvHIo4K+3tfHR/CJMd73q/EKeDxiFBPQRIJRgXig+IDiCWKUDcp9LOyy7A7Lzlv/WmrsnZ3u6Z7pnunu+fXnM/RVVV31rWG+W9XV1VlhsRAWEAABEAABXQKrPvkHffzmo7Rl8ybdMPFOlBYHafjBveIF0z0fLKqksvoxVN7/eAoW1eiGy6QTWRBYJlU3ygoCIGCFgB3iUtdLVmAqHYhMkSCCwH5kgS0QAAEQkAQaV75DS/56X1ItrmiUdglMpatEVjP0LHUo49YQWMZVOQoMAiCgR2D92pX0/rw7aP3a1XpBEj5ut8BURjJZZBCY+hZgDQIgkLEEnBSXguqUwFT6mSgyCEzVPtYgAAIZRyAV4lJQnRaYuk4miQwCU7WONQiAQMYQSKW4FNRUCUxdLxNEBoGp2sYaBEDA9wTSIS4FNdUCU9f1s8ggMFXLWIMACPiWQDrFpaCmS2Dq+qkSWUcH0fc/dNIB+2dTTg7Rrl1hys3NomBQ5cS+NQRmH0ukBAIg4DICbhCXQpJugal8OCWyv83fQ4881UF//zxMvxiRRRu2hCk7u+uqf3wojwY1CJvZvEBgNgNFciAAAuknwOJauuBxWrt6afozsy8HBXkB2r+6iPpUFbkiT3aKbOazITp/hmh65RKt/2c+1dZ0meu99zvop+eE6Kv5EJgrKh2ZAAEQcDeBj96aRR++8WTaM7m7vYNa28SPOmXRxq2tkfyUFOZKiQ2qL3OFzFhkDaf8IZI/qxvbtoWp8ojdMtoLdwTorDO79xVefUMbXTQlt0cLjCcxzMoyd7VYYeUxTCVlDiBCgQAIeIPA+2IGjeXvvJKWzOYGsmmDkFVnJ9Hm7V0/6kYZUTLjVhkLLV3LIb98OeFLz3stRKf+XxY10Q/v5VOf3vv6DfeluPqbvVRZkU1PzgzRnNf3UlE+0Z3Tg3TyRSGaOCaLHn+ogJ6fHaJbH+ygyhKihv5Z9NDd+VRamkVrGjvpihva6YdN4j5agOiK3wTozDOC9NiT7fTEC3sxldQ+xliBAAj4hECqBZadnSVbWl837qBAjskmRQzWLLOSolxqqCun/cQ6lV2NyQjsyuva6IE5wtii+zC8qjBGyboOrf2+k/od1yZ3/tehWfTO6jCdclgW/X5GkA4e307XTMqm6TflUcmhu2n8sCxa8JcCuur6Nrp/bidtXVJA9zzYTgcdmE0TTg5Qzag2uu0/siEwXdo4AQIg4EkCTgtMr2vQblgstAbRKusrWmdOyywZgU2YuJteXyb6A+MIbMPGTuo9uktgK+Z13RPjLsSHHhXyenAvzfqvAE0+J0gVw1ppe3NXa+66/2yn/347TH1E4/TPfwhSYWEW5YsWHAuPFwzisPtbh/RAAATSSsAJgXGX4PbmNmoPdVJTc9ePZyoL6XRXYzICu/Pedrrh/+2VOJo/LaDi4titUK3A2lcWRobVj53QSou/IvrT3V3dg/UjW6lxK9GbT+VSUVEWjT4rFEG97JUgjTgsQCedtpveWBGGwCJksAECIOALAnYJrKQoKO9jJds1aDdUJ7oakxHYh0s76KhJXZJ5/bFcOvkk0RTTLCyumups2rjpxxZY+Nsfuxp5kMd9L3VGBNZ3RCutaxKjGZfkU0tLmLZvD9Oxk0PULm4pnn18Fv3hgXzaKgaO/PbOdghMwxmbIAACPiCQqMBS1TVoN2I7uhqTERiX53d3ttHNj3fKrr5V//yxFfbFl3vp/1zUTp//s5D4Hlj/cV1diFqBvfteBx17bogevCaHpv5HHgUOaqXhdUQfLyykKRfvpssvzqVevbLl/TMW2Iwbg3TNzSGaO7sAArP7y4T0QAAE0kvAisCUtNLVNWg3qUS7GpMVGJdDjQz8pJHolJFZ1CxaT2X7ZdGj9+XJkYkzbmujW/8o+mLF8vT0AJ0/uWu4/V7R+3j5NW00++1OOuXILHrp/TC9+2yQjjg8QFOvbKO5i8Xxn2bREwvC9MnLeVRdnUV9jm6j/y0GgOAemMSJf0AABPxCIJ7AVNfgus2t1Cae1fLrou1q5EEgPLJRb7FDYCptnjpq3fpOquuXE7nPpc4ZrZubRXdhU1hOQaWeD+NnzMrKsmTrjYfn54oisPC4axHPgRnRxDkQAAFPEoglMH4+qzA/l5Z8usGTZbIj00ZdjXYKzI68mk0DLTCzpBAOBEDAEwRiCayudwnViw8vO3ftoZbWkFw3i3Wz2Oc1t8gyZYnuaoTAMqXmUU4QAAFXE4gnMKPM+1lu5eXlsuhl5ZU0cNBwud2rui8NOPgQ6nvQ0UZYXHsOLTDXVg0yBgIgkAiBZARmdD23y01PUJW19TT48JOMiubZcxCYZ6sOGQcBEIhFwCmBxbqWOqaVGx9bt3mX7d2SmSgoxVdvDYHpkcFxEAABTxJIh8CMQLHceGGpqXWse24QlMRj6R8IzBIuBAYBEHA7AbcJjHmp6afKSvK64WO5ldWNpiEnXN/tOHbMEYDAzHFCKBAAAY8QSIfA2kJ7I5JqaumaVmlHc9e6LdT1rJneG5mLqwdRWf1YSTe3qJqKqw/xCOn0ZxMCS38dIAcgAAI2EnBaYCyrNeub5UPQPIOHElS8IugJLFY8fskkL4VVg+W6uHoIsdx4geAkBvkPBPYjC2yBAAj4gECiAuNuPpZT5CNm6aitLJQfLRZ+YeWqRjHbrMXFisDiJc2CCxZVUaCwSgZVggsKyQWLauJF9815CMw3VYmCgAAIMAGzAmMRNa5vMWxBaR+AVnTdIDCVl1hr1XpTgmO58eLH7kkILNY3AMdAAAQ8S8CswLgbsFF8jBYvCsyoPHxOCU7bPVne/4R40Vx5HgJzZbUgUyAAAokSgMCsk8NUUtaZIQYIgAAI2E4AArOOFAKzzgwxQAAEQMB2AhCYdaQQmHVmiAECIAACthOAwKwjhcCsM0MMEAABELCdAARmHSkEZp0ZYoAACICA7QQgMOtI/7xyqOlIa9asMRXWbDhOLNGwGIVoqioQCARAwCsEIDDrNWVFYHV1daYuUF9fbyocB0o0LARmGjECggAIeIEABGa9ltCFaJ0ZYoAACICA7QQgMOtIlcCsdOW1t7ebulBbW5upcBzIali0wEyjRUAQAAEvEIDArNdSIgLLz883dSGz4Tgxq2EhMFNVgEAgAAJeIQCBWa8pJTDrMdMbAwJLL39cHQRAwGYCEJh1oBCYdWaIAQIgAAK2E4DArCOFwKwzQwwQAAEQsJ0ABGaMVM1Gz69bUTPS1ww9yziSS8+iC9GlFYNsgQAIJEbArMDU+8D4KnpvVfbq61TUCy+VoPhFl3gfWGLfJ8QCARAAgZQRMCswbYbkW5jFG5gjb2PmNzN75I3M3JLyq6C0dRRrGy2wWFRwDARAwLMEEhGYlcI2NbdTU0uIeN0e6pRR9Vpw2nRLi4M0/OBe2kO626oFFShkOWWuoHQB7TsBgcUjhPMgAAKeIuC0wPRgsNB4YbnJdZTg9ARWXD1I3osqqh4qW1LBohoZH//EJwCBxWeEECAAAh4ikC6BGSHirkle8oM53YJl5eRSed1Pqe/IS7sdx445AhCYOU4IBQIg4BECbhMYS4qXQF4xZeUEKTsgPjl5lCP2tUtOoFDu5uQWUbY4V1DaT+7nFlRQYa/B2qDY3kcAAsNXAQRAwFcE0iEws5JKBrQSXG5xVxcjBEcEgSXzjUJcEAAB1xFwSmCpkFQyMDNRcBBYMt8YxAUBEHAdgWQE5nZJJQPbj4KDwJL5RiAuCICA6wjEExhLKkfch+L7UUb3pFxXMBszFN4botCurcTrPa3bCVNJ2QgXSYEACPiHgHrHVPQ6VgkbGxu7HZ4+fXq3fTM7sQSWHwzQoYP7U3ntgZSbm20mGd+FUdLqDLVQR/uubuWDwLrhwA4IgICfCbCM1Ielo7a5zLytXavXxas1n9Nuy8D7/ok+bpfA1DUCuXlUUVZMfftUU0VFBRUUl6pTvlwrae1p3SZaW3t0ywiB6aLBCRAAAa8SYBktWrSIWFK85n3+sGi0Hy7fmDFjZDH5OC9qLXdS+E+sFpje5SvLS6imd2+qLK+gUiE0ry9KWFyOUPNG08WBwEyjQkAQAAG3EmA5PfPMM1JWLCyWEH/Gjh0rBaX2E8m/el189DpWWiqMOsfXNbtYEZg2TW6dVVdVUv9+tVRcJia/9UhXo5JWrK5BbfmMtiEwIzo4BwIg4FoCSlqzZs2SeTzvvPOorq6OeB1vYdFoP+3t7XKf4ykJqbV6XbxacxjtNu+rJS8vT23KdSoEpr2g6mrs1+8AKt2vyHVdjUpa8boGtWUy2obAjOjgHAiAgOsIcAtLtbZYVpMnTyY9UbCEmpqapJR27NgRkRYLSH2UdMrKymRZlZzUOlUAEm2BGeUv3V2NSlicRytdg0Zl0p6DwLQ0sA0CIOBqAiyvcePG0YwZMyjWQAkW1oYNG4hlxeJSkiotLSUWlNp3YyGdEJi2nMVFhVQluhr71FY52tWopJVM16A230bbEJgRHZwDARBwDQElr4ULF8p7WypjSlobN3bd/K+pqZGiqq2tVUE8sXZaYFoI2q7GcjEQJK8gX3va8raSll1dg2YzAIGZJYVwIAACaSXALS9udfHADF64hcXS4jVLi4WV6m4/mRGb/kmlwKKzrLoae9dUmbpvpoTF6TjRNRidP719CEyPDI6DAAi4hoBqfYXDYZknltaKFSvkoA29+1+uybzJjHzx/mxaOO8Rk6GdC8Yy26+0rEdXo5JWKroGzZSOX57ZcMofzAR1XRhMJeW6KkGGQMA5AlOmTJHD4XnQhpLXsGHD5H0t566a+pTXr11JSxc8TmtXL039xWNckbsaD+hbTXVV2YYPFMeI6tghFldZ/RiqGXqWY9dwOmEIzGnCSB8EXEQgKyuLVOtLtbzUqEEXZdO2rLhJZHpvZLatsCYT8oO4VFEhMEUCaxDwOQF+zmvx4sU0c+bMSOtLzZ7h86ITi+z9eXeI9eq0FTXdAvOTuFQlQmCKBNYg4HMC2u7DVatWEQ+J99oIw2SrKJ0iS5fA/Cgu9T2AwBQJrEHA5wT69+9PPHSeB2twSyxTWl+xqjUdIku1wPwsLlWnEJgigTUI+JyAuv+lHlBuaGjweYnjFy+VIkuVwDJBXKpmITBFAmsQ8DEB7f2vTO0+NKreVIjMaYFlkrhUXUJgigTWIOBjAnz/i7sO+QHmDz/8kHjovJcfVnaqqpwUmVMCy0RxqfqHwBQJrEHAxwS0Azgy/f6XmWpmkb310m3UtOk7M8FNhbFbYJksLgUcAlMksAYBHxNQAzi41cUT9OL+l7nK/tfyP9OShX+2RWR2Cqx6yOmefgDZHP34oSCw+IwQAgQ8T0AN4OD7X/zaE+5OxGKegB0is0NgEFf3OoPAuvPAHgj4koBWYJn4/JddlZqMyJIRGMQVuwYhsNhccBQEfEOAJ/C99dZb5TNgGMBhT7UmIrJEBAZxGdcXBGbMB2dBwPMEtEPoMYDD3uq0IjIrAoO4zNUTBGaOE0KBgGcJcOuLFx5CD4E5U41mRGZGYBCXtfqBwKzxQmgQ8BwBNYT+1FNPpcbGRvkMmOcK4YEMh3ZtpNUr3qaPFr5ALTu39cixkcAgrh64TB2AwExhQiAQ8C4B9QbmQYMGYQh9CqpRT2SxBMbiKu9/PAWLalKQM/9dAgLzX52iRCDQjYASmBo6r9bdAmHHdgLRItMKDOKyBzcEZg9HpAICriWgHmJub2/PyFeopLtilMhW/88rNPr4M9DisrFCIDAbYSIpEHAjASUwnoGjrq6O/PwGZjfyR56cIwCBOccWKYOAKwioh5hXrFgBgbmiRpAJuwhAYHaRRDq+J7B161b65JNP6IQTTvBUWZXA8BCzp6oNmTVBAAIzAQlB3Evggw8+oBtvvJF4tomDDz6YhgwZQps2bZIZPvvss+mSSy6xJfP843/++efLV5AsW7asR5rr1q2j3//+9/TII4/Q/vvvT1dffTVNmzaNAoFAj7B6Bzo6OrqF37t3L+Xk5OgFN3V8zZo1xIM4vvvuO7xGxRQxBPIUgTAWEPA4gddffz0s/tOFly9fHinJK6+8Io9dccUVYSGCyPFkNu66667wiBEjdJPYvXu3vOZNN92kG0bvxPbt28O33HJL5PTbb78dnjdvXmQ/0Y2FCxeGx44dK6MLySeaDOKBgCsJkCtzhUyBgAUC7777bg+BcfS7775bHo8WQWdnp4XUu4JynPvvv99QYBySRSpaYnHTj87Db37zm/BVV10l4+3atSs8ePDgmAKLjscRYh1TGYDAFAms/UgAAvNjrWZYmfQEtnPnTimUa6+9VhL54Ycfwqeddlr4mGOOCZ955pnhL774Qh7/7LPPwuedd1745JNPloL6/PPPIwTnz58vw59xxhnhkSNHJi2wJUuWhE888USZDudr27Zt4Ycffljmc8CAATJfkyZNkvtHHXVUpFUWK957770X/tnPfha++OKL5Vp0oYZDoVAk77wxc+ZMWTZuHYru1m7nsAMCXicAgXm9BpH/sJ7AGE11dbUUD29zV9rSpUt5Mzxx4sTwhAkT5Pbxxx8fvv322+X2scceG7700kvl9pdffilF8v3338tWjhKPPKnzj1ELjGXFkmppaZEfca8sfO+998qUWJCqBcYHOB3VctSLt3r1ailCDvvCCy+Er7vuuh7dpUpg3EUpBqDo5BqHQcCbBCAwb9Ybcq0hYCQwlgR3x33zzTdSCpdffnmYPywtPscymT17dnjlypXhb7/9NtI64+S5ZcOtLrVwl6TRPTAOZySwZ555RgpV5YHz9Ytf/EImbyQwo3gsYs6n3gKB6ZHBcT8QgMD8UIsZXgY9gfG9JBYKdxfyoAjebm5u7kGrqakpfO6554Z5wAcLhcPzwvK64IILIuEfeOCBiMC4Ncbp8aekpCQShvf17oGJWeGlICOBNRtGAjOKx3nlfOstM2bMCPNn/fr1UtJ64XAcBLxIAALzYq0hz90I6AlMDGmXgvnrX/8qRyiyXHhbLW+99ZYUGt8Tu/POO+XhK6+8UnYv8g7fL+MuP7VoBcYjHjk+f9555x0VRF4vlsCefPLJ8EMPPSTPi+fJIuHnzp0rt40EZhQPAougxEYGEoDAMrDS/VZkHmjBctIOo+eh9dwymjx5siwut8b4fhh32/GACJYOt67U0HcWjHh+THYt8r2xr776SnYtcroLFiyQ98DEs13dhBbNkQdQcPjoYfR/+ctfpCD5HhSfZ+nwABLuuuRuSV5+9atfyY94XivM96s475wnLpNRPO5C5BGMegtaYHpkcNwPBCAwP9RiBpeBR+JxC4rFcOihh0o5cMuJR+fxs2DahbsRWQwclgdrfPrpp/I030PiYzzq76KLLpLbL774omyd8cAPPsf3y/j+F8fn4fTRC49wVHFV+nyfjUcG8j6PdOTlvvvuk/t87JxzzpGy4uNPPfWUPM6jIXlYPHdpcpjHHnuMT8eMx61JljJ/tC1LGWHfP0pgLEb+YAEBPxHATBziVwJL5hDYs2cPbdy4Uc6WoS21aPVQeXk5/0FHra2tVFRUFDm9du1aeY5ncy8oKKDCwsLIuUQ2xMAREi0/qqqq6hadr6tNO3pfL163RKJ21MsshYjlGbxKJQoQdj1NAALzdPUh8yBgTAACM+Zjx1nRYibRApd/FPEfOfxHEP+ho114mjDxOAb17t2b8vLytKci2/wHixhkRDU1NaT+oIqcxEZMAhBYTCw4CAL+IACBOVuPojuZxD1SamhoIHFvlVhgotuXjj76aHlhngBaDAwiMdKVhg4dKsOIbmgZpm/fvjKMuHdK4tlDGYZb5eJZRTmfJ7f8sRgTgMCM+eAsCHiagBLY6NGj8TJLm2tSPDdIw4cPJ57Iubi4WHY9jx8/nsScmVJg3KJisYlBOyQeWI9c/cILL6SXXnpJTrBcWVlJzz//PD377LP0xhtvyDDimUUS91tJzCQTiYMNHQJ+uqGHsoAACHQnwINC+GFmflCbnwXDYh+Bp59+Wg600XJ97rnnwjywiBceQCN+dsPinmu3i6opzsTbCuRxHrDDzxyK+7ORcNrnDyMHsdGDAFpgOmLHYRDwAwF+lcr06dPlvZfS0lKqra31Q7FcUQYxipWGDRtG4llBElN50ahRo+S9K/ErSxUVFbL1xcy5SzB6OfDAA2nz5s2ylfXoo4/S1KlTSczFSeLRCeKuRW6FDRw4MDoa9qMJ9FAaDoBABhPgeQ95Zg6/LPwYAM9IjxaYMzXKj1SI31T5ueyyyyKPRbS1tclj/IB6rIWPc7wtW7bIlhc/+qHS4QfwxaCPWNFwLIoAngOLAoLdzCPAXTe/+93v5PNkN9xwQ5h/XPiZL37g2esLBOZ8DfL3RD3vx88LintiYTGYw1BgPGE0C0t1P/Kzf0888UTkOUV+mF7bpeh8Kbx5BQjMm/WGXNtIgGfB4IeYxU33SKp8L4N/YBYvXhw55sUNJTCezYNn+MBiHwHRBRiRDM/own/88HdG3b/iP4L4E2vhB+05LIuLH4JXCwuNX+vD5/g7iMWYAARmzAdnfU6A5zLkH4tYM1mw1HjqKSt/CfMPktUlkThmrwGBmSVlPZwYSdjjDxyeDJpnhOGFpx7j79aGDRu6Jc6y49lT1CAOnn+TpzpTC2/zjC/qPXbqONY9CUBgPZngSAYR4PsW/COzY8eOHqVW3TwsOTVSjLuGFi1aJF9KyXHVwvMWqveF8aS/PC8iv5+LR5fxO8gaGxvlNFe8r4TFXU8qjnq5pUrPrjUEZhfJnumwwPjeFde1Wrg+xTB6uctvPuCuRe173vgE3zdjQf373/+W4fh7ds8998ht/odHKfJ5P3RhRwrl0AYE5hBYJOsNAvwDzwKLtajZ7PnFkm+++aYMp7oZ+a9r/rHihQdJcJfQ3r175fyKnB5Li8PyNsfl5dVXX5X7HE7vJZUyoI3/QGA2woxKigXGXYTcUudWFN+34u5D7SAgnn+SJccflhR3V/Ocmdz9qBZ+HQ7/YcNdhyw7nkPzt7/9rTqNtQGB2P9zDSLgFAj4iQD/WOgJjH+g+NycOXMib31WAuN3dCmB8bNW/AOkXlTJ3UM8yzyLSisw9U4yPm70kko7+UJgdtLsnhb/EcLdy9wlyG/v5pej6i3cRc2tKv4+RLeslMw4PX4LAkYg6lHseRwC68kERzKIAHfz8Y+K9q9mVXw1RJpfaaLeORZLYDyzvXjWSkWLrI0EZvSSykgCNmxAYDZAtCkJfis4v0qHRfbRRx/ZlGpmJwOBZXb9Z3zpVbfea6+91oMFd/vwPQwWEc+uwKJTN9u1LTDtjXtOhP+C5vT4XhfH+cc//iHTVi0wPm/0ksoeGUniAASWBDyHovIzeXyflF98ys+LYUmcAASWODvE9AkBfukl38fgriC18F/ILB9+MSYv/KPD+9z9w601Ds/dhryoe2W333677AK68cYbI9MJ8V/b/LZnlqB2wIjRSyplojb9A4HZBBLJuJIABObKakGmUkmAW1XclchSuuOOO+SN9JNOOinyEkrOC9/r4PMsMb5vxm9BZjnxw6c8MpG7hvgcH+PWmVquv/56eZxbcnxjnsPw8Gluhem93FLFtWMNgdlBEWm4lQDmQhS/KFhAgAmsWrWKTj/9dBI35OXs4WJEWDcwoktQvtNJzLZAYgogObu79t1OmzZtki/C1L4MkxPg2cp51nEhLeJXZ/CLM9WSyEsqVVwzazUXIl+zrq6OysrKzERDGBDwBAEIzBPVhEymigAL5bbbbiPR7UdiJgSaNGkSBQKBVF3e9utAYLYjRYIuIgCBuagykBX3EBBDmmnu3LmyxfXrX/+a6uvr3ZM5CzmBwCzAQlDPEYDAPFdlyDAImCcAgZlnhZDeIwCBea/OkGMQME0AAjONCgE9SAAC82ClIcsgYJbAlClTaMyYMXTYYYdhEIdZaAjnGQIQmGeqChkFAesEIDDrzBDDOwQgMO/UFXIKApYJQGCWkSGChwhAYB6qLGQVBKwSUAIbPXo01dTU4DkwqwAR3tUEIDBXVw8yBwLJEdAKrLS0lGpra5NLELFBwEUEIDAXVQayAgJ2E4DA7CaK9NxEAAJzU20gLyBgMwExL6NMkWcUQQvMZrhILu0EILC0VwEyAALOEYDAnGOLlNNPAAJLfx0gByDgGAEIzDG0SNgFBCAwF1QCsgACThFQAhPvPJOX8Oqcjk7xQbreJgCBebv+kHsQMCQAgRniwUmPE4DAPF6ByD4IGBGAwIzo4JzXCUBgXq9B5B8EDAjMmjWLFi9eTNOnT5eh0IVoAAunPEcAAvNclSHDIGCeAARmnhVCeo8ABOa9OkOOQcA0AQjMNCoE9CABCMyDlYYsg4BZAiywZ555hmbPnk1tbW2efbO02fIiXGYRgMAyq75R2gwjsGjRIuKBHCywHTt2UENDQ4YRQHH9TAAC83PtomwZTwACy/ivgK8BQGC+rl4ULtMJQGCZ/g3wd/khMH/XL0qX4QTWrFlD48aNo48//pgaGxtp2LBhGU4ExfcTAQjMT7WJsoBAFAEILAoIdn1FAALzVXWiMCDQnQAE1p0H9vxFAALzV32iNCDQjYAS2FdffUUrVqygUaNGdTuPHRDwMgEIzMu1h7yDgAkCWVlZtHv3bgjMBCsE8RYBCMxb9YXcgoBlAhCYZWSI4BECEJhHKgrZBIFECUBgiZJDPLcTgMDcXkPIHwgkSaB///60cOFCOYx+zJgxSaaG6CDgHgIQmHvqAjkBAUcIRAuMB3bgtSqOoEaiKSYAgaUYOC4HAk4TmDJlCnFL67zzzpOX0gqMZ+bgD7fIsICA1wlAYF6vQeQfBKIIcAuLpdWrVy+aNm2aFBa3uF599VXatm0bzZw5MyK3qKjYBQFPEYDAPFVdyCwImCMwceJEmjNnDpWVlVFTUxPl5+fL16lw7HA4bC4RhAIBlxOAwFxeQcgeCCRCgFthI0eOpC1btnSLjtZXNxzY8TgBCMzjFYjsg4AegXvuuUe+C6ylpSUSZPv27bJVFjmADRDwMAEIzMOVh6yDgBGB6FbY+PHjad68ebI70SgezoGAVwhAYF6pKeQTBBIgMGvWLLrkkksoEAjQZ599huHzCTBEFPcSgMDcWzfIGQjYQuCwww6jgQMH0ssvv2xLekgEBNxCAAJzS00gHyDgEAF+7ouXsWPHyjX+AQG/EIDA/FKTKAcIGBBYv3YlLV3wONWXt1C/EZOovP8JBqFxCgS8QQAC80Y9IZcgkBABJa61q5fK+KOG1lB+MIeCRZVUPWQiRJYQVURyCwEIzC01gXyAgI0EosWlklYCU/sssr5HTqXi6kPUIaxBwDMEIDDPVBUyCgLxCeiJS8WMFpg6DpEpElh7iQAE5qXaQl5BQIdAPHGpaHoCU+chMkUCay8QgMC8UEvIIwjoENixZQ0tW/QiffnRazohuh+OJzAVGiJTJLB2MwEIzM21g7yBgA4Bq+JSyZgVmAoPkSkSWLuRAATmxlpBnkBAh0Ci4lLJWRWYigeRKRJYu4kABOam2kBeQECHQLLiUskmKjAVHyJTJLB2AwEIzA21gDyAgA4Bu8Slkk9WYCqd4upBVDXkTAy/V0CwTgsBCCwt2HFREDAmYLe41NXsEphKr6z+WPEw9DiITAHBOqUEILCU4sbFQMCYQGjXRnp3/kzTowqNU+t51m6BqStAZIoE1qkkAIGlkjauBQI6BJwWl7qsUwJT6UNkigTWqSAAgaWCMq4BAjoEUiUudXmnBaauA5EpElg7SQACc5Iu0gYBHQKpFpfKRqoEpq4HkSkSWDtBAAJzgirSBAEdAukSl8pOqgWmrguRKRJY20kAArOTJtICAR0C6RaXyla6BKauzyKrGfpL8TqXGnUIaxBImAAEljA6RASB+ATcIi6V03QLjPPBD0MXVg2GyFSlYJ0wAQgsYXSICAL6BFhc/7Pwv2n5O6/oB0rxmdxANtX3LqE+VUUpvnLsy0FksbngqHkCEJh5VggJAqYItLa20h9vPdFUWKcDlRQFafP23fR14w4K5GTJy5UU5kqJscgG1Zc5nYW46WN6qriIEECHAASmAwaHQSBRAjyLxnN3n51o9KTi7W7voNa2DpFGFm3c2ho3LZZZSVGX0PoKoaWrdbb/kReLGT1OiJtfBAABLQEITEsD2yBgA4FUC6yzk2h7cxu1hzqpqbk9qRKo1hm3zFIpMwgsqWrL2MgQWMZWPQruFIFUCCxW16Dd5VEyS0VXIwRmd+1lRnoQWGbUM0qZQgJOCMxq16DdxXW6qxECs7vGMiM9CCwz6hmlTCEBuwSmpGVH16DdxVetM7u6GiEwu2soM9KDwDKjnlHKFBJIRmCqa3Dd5lZqEwMyvLAomSXT1QiBeaGm3ZdHCMx9dYIceZyAFYGpVlZRQS59+/1Oj5ecSHU1NtSV0377RjeaKRQEZoYSwkQTgMCiiWAfBJIkEE9gSlpu7BpMsug9orPQGsSIxnhD9CGwHuhwwAQBCMwEJAQBASsEYgksPxigvGAOfbN2h3yw2Ep6fglr1NUIgfmlllNbDggstbxxtQwgEEtgpcVBGn5wL1n6nbv2yPW6zbsi6+bWEDWL482tXef8jim6q/HICVfjQWa/V7oD5YPAHICKJDObQDyBGdHxu9zKy8uprLySyitrqLKqN/Wq7kuVtfU0+PCTjLDgHAjEJACBxcSCgyCQOIFkBGZ0VS/ITU9QvXoPoOo+BxkVD+dAwDIBCMwyMkQAAWMCTgnM6KqpkhsEZVQLOJdqAhBYqonjer4nkA6BGUFVcmsR99l4m++96d1zg6CMSOKc2whAYG6rEeTH8wTcJjAG2hbaKyf6LSvJo3wxGlItSm7HnD9XHcIaBDxDAALzTFUho14hkC6B8Uz0LKrIR8zkwc+atYV+nNEj1huZ1Ysli6uHUG5RtXhjMn9qvIIb+cxgAhBYBlc+iu4MgVQIbGVjk8z8juZQN0HFK1EsgcWKw1LjJVhURYHCKmK58cKCK64+RG7jHxBINwEILN01gOv7jkCiAlMtKAbS1BKSXHg+RPX8mBbU4uXrtLumt80KLF6CSnCFVYNlUNV64x0ILh49nLeLAARmF0mkAwL7CJgVGHf1rfh6q4yl7ebTguQZPEYNrdYektvpFliPDEUdYMGp1hufUoJD92QUKOwmRQACSwofIoNATwJWBPbh5xt7JqA54lWBaYoQc1MrOJZbUfVQ3HeLSQoHjQhAYEZ0cA4EEiAAgVmHhrkQrTNDDCIIDN8CELCZAARmHSgEZp0ZYkBg+A6AgO0EIDDrSCEw68wQAwLDdwAEbCcAgVlHCoFZZ4YYEBi+AyBgOwEIzDpSCMw6M8SAwPAdAAHbCUBg1pFCYNaZIQYEhu8ACNhOAAKzjhQCs84MMSAwfAdAwHYCEJh1pBCYdWaIAYHhOwACthOAwKwjhcCsM0MMCAzfARCwnQAEZh0pBGadGWJAYPgOgIDtBCAw60ghMOvMEAMCw3cABGwnAIFZRwqBWWeGGBAYvgMgYDsBCMw6UgjMOjPEgMDwHQAB2wlAYPGRamej59eulPc/HrPRx8eGEFEEMJlvFBDsgkCyBKwILBPeB8aC4veA8duc8T6wZL9diK8lAIFpaWAbBGwgYFZg0ZfiNzLzot7GrPbd/kZmFhQvXe/0YknVyH38AwJOE4DAnCaM9DOOQKICswJqzfpmUoJrD3WS3hudo9McNbSG8oM50Yd77HMXHy+FVYOFkCCoHoBwwBUEIDBXVAMy4ScCqRBYLF5tob3U1t4hZCbW4hNLcHoCqx5yumxBcbrF1YfESh7HQMB1BCAw11UJMuR1AukSWDxuLLSykrwewfL2q6X64/5T3p/qcRIHQMDFBCAwF1cOsuZNAm4UWFZOLuUEgpQdLJZQA3kllC32s3KC3SDnBAopJ7eIsvOKKTe4HwUKyii3oEKse0Fw3Uhhxw0EIDA31ALy4CsC6RJYLEnlCBHZtbDceIHg7CKKdJIlAIElSxDxQSCKgJMCc1pSUUWxtAvBWcKFwDYQgMBsgIgkQEBLIBmBsaB4CYiWk+re4+4+O1tS2rymcttIcIW9BqcyK7iWTwhAYD6pSBTDPQTiCczPkrJSC+G9IQrt2kp7WrdR38MvELNxnGAlOsKCAEFg+BKAgM0EYgksPxigA/pWUb/6AVRQXGrzFb2RnBIW5zbUvLFbpjEXYjcc2DFJAAIzCQrBQMAsgVgC08atLC+hqqoK8elNhSVilF9utva0r7aVtDpDLdTRvku3bBCYLhqcMCAAgRnAwSkQSIRAPIFp0wzk5lF1VSX171dLxWVivkAfyExJi7sGw3v3aIuruw2B6aLBCQMCEJgBHJwCgUQIWBGYNn2WWUVZMfXtU00VFRWe6WpUwuKyRHcNastntA2BGdHBOT0CEJgeGRwHgQQJJCqw6MtxV2NN795UWV5BpUJoblqUtOJ1DZrNMwRmlhTCaQlAYFoa2AYBGwjYJTBtVtzQ1aikZaVrUFsGo20IzIgOzukRgMD0yOA4CCRIwAmBabOiuhr79TuAykXrLK8gX3vatm0lLE4w0a5Bs5mBwMySQjgtAQhMSwPbIGADAacFFp1FO7salbTs6hqMzqvePgSmRwbHjQhAYEZ0cA4EEiCQaoFps1hcVCiG51dSn9oq06MalbSc6BrU5s1oGwIzooNzegQgMD0yOA4CCRJggb384GTTL5lM8DJxo6n7Zn16V3framRhdbQ3U2eHmAkj6oHiuIk6FKD/uFvwHjKH2Po5WQjMz7WLsqWNQGjXRnp3/kz6dsX8tItMQeCuxkEDqigQblOH0r7mF2mW9z9evKqlJu15QQa8RwAC816dIcceIsCtsWWLXnSNyPTeyJxqpBBXqon783oQmD/rFaVyGQG3iCzdAiurP5Zqhv4SLS6XfT+9mh0IzKs1h3x7kkC6RZYugRVXD6K+R06DuDz5rXVvpiEw99YNcuZjAukSWaoFBnH5+EvsgqJBYC6oBGQhcwmkWmSpEhjElbnf6VSWHAJLJW1cCwR0CKRKZE4LDOLSqWAcdoQABOYIViQKAokRcFpkTgkM4kqsvhErOQIQWHL8EBsEHCGwfu1K+urDubYPv7dbYBCXI9WPRE0SgMBMgkIwEEgHAbtFZpfAIK50fBtwzWgCEFg0EeyDgAsJ2CWyZAUWLKoUw+GnYtonF35HMjFLEFgm1jrK7FkCyYosUYFBXJ79yvg64xCYr6sXhfMrgURFZlVgEJdfv0H+KBcE5o96RCkylIBVkZkVGMSVoV8ojxUbAvNYhSG7IBCLAIts6YLHae3qpbFOR47FExjEFUGFDQ8QgMA8UEnIIgiYJRBPZHoCg7jMEkY4NxGAwNxUG8gLCNhEQE9k0QKDuGwCjmTSQgACSwt2XBQEUkMgWmRKYCyu6iETxcskT0hNRnAVEHCAAATmAFQkCQJuI6BEVl/eQv1GTIK43FZByE9CBCCwhLAhEgiAAAiAQLoJQGDprgFcHwRMEOjs7KQffviB9t9/f2pvb6dwOEwFBQXdYnZ0dND3339PvXv3pry8vG7n1E5rays1NzdTTU0Nbd++ncrLy9UprEHAcwQgMM9VGTKcaQTuv/9+WrBgATU0NNCSJUukwB577DE6+uijJYqtW7fSlVdeSU1NTTR06FAZpqSkhDhM3759ZZhQKESXXnqpDFNVVUVLly6lTZs20dq1azMNJ8rrIwIQmI8qE0XxH4Fvv/2Whg8fTuvWraPi4mLiFtT48ePprrvukgLjfRbbmWeeSffee28EwIUXXkgvvfQSfffdd1RZWUnPP/88Pfvss/TGG2/IMN988w2NGDGCdu7cGYmDDRDwHAHRFYEFBEDApQSefvrpsPhRCa9fvz6Sw+eeey783nvvyf0ZM2bI8xs3boyc5w0hJnl82rRp8vi5554bHjlyZHjPnj2RcBdccEFkGxsg4EUCaIF57k8OZDiTCHz66ac0bNgwGjBgAL3wwgs0atQoee9K/NhQRUWFbH2VlpbKLsFoLgceeCBt3rxZtrIeffRRmjp1Kp188sn05JNPyq5FboUNHDgwOhr2QcA7BLxoXeQZBDKJgLgHJltT4lclfNlll4XF4AtZ/La2Nnn8jDPOiImDj3OcLVu2yJbXaaedFknnkUceCYtBHzHj4SAIeIUAWmDe+VsDOc1gAh988AFNnjyZvv76azkSkQdh8L0tHm0oREVz5szpQYdbXNzyEt2PVFtbK0cuPvXUU3T11VfLkYgTJkyguXPnUiAQ6BEXB0DACwQgMC/UEvKYsQRE64nKysqkZESLi2699Va64447SNy/IpbR4YcfLtksW7asB6Of//zn9NprrxEPwWeJ9enTR4bZsGEDnX/++TR//nwS99PonHPO6REXB0DACwQgMC/UEvKYsQRefvll+czWcccdF2Fw6qmnytGFK1asoGuuuUaOPmQp8bNdamHZ1dXVydGJDz/8MF111VV02223UWFhoQzCoxe5VXbxxRfLEY0qHtYg4CUCEJiXagt5zTgCLLDZs2fTn/70J8rNzZXl52H0J554Il177bXU0tIiW2GnnHJKt2H0DzzwAN1yyy30xRdf0AEHHCAHcPBAEO4+5IUfZuZnxHhY/VFHHSWP4R8Q8BoBCMxrNYb8ZhQBFhh3GQaDQRo9erS8B8YtJ37mi0cf8rJmzRrZwuLtY445hpYvX05FRUV0++23U69evfiwfNBZDL2X+z/5yU/ok08+oXHjxtHNN98sz+MfEPAiAQjMi7WGPGcMAZ7uiWfV4Gmi+KHkfv36STnFAvC3v/2NzjrrLNm64hk7tC0rvpfGMuP0xDNjdNBBB1FOTk6sZHAMBDxDAALzTFUhoyAQn8C//vUvuummm+QAjbfffpuOOOKI+JEQAgQ8SgAC82jFIdsgYERg1apV9Pe//512794tuw/1Jvc1SgPnQMDtBCAwt9cQ8gcCIAACIBCTAAQWEwsOggAIgAAIuJ0ABOb2GkL+QAAEQAAEYhKAwGJiwUEQAAEQAAG3E4DA3F5DyB8IgAAIgEBMAhBYTCw4CAIgAAIg4HYCEJjbawj5AwEQAAEQiEkAAouJBQdBAARAAATcTgACc3sNIX8gAAIgAAIxCfx/7S/3dJUHI2AAAAAASUVORK5CYII=;" vertex="1" parent="1">
                    <mxGeometry x="294.13" y="328" width="118.25" height="150" as="geometry"/>
                </mxCell>
                <mxCell id="33" value="Retrieves AWS credentials" style="text;html=1;strokeColor=none;fillColor=none;align=center;verticalAlign=middle;whiteSpace=wrap;rounded=0;fontColor=none;" vertex="1" parent="1">
                    <mxGeometry x="60" y="170" width="100" height="30" as="geometry"/>
                </mxCell>
                <mxCell id="34" value="Client Side" style="text;html=1;strokeColor=none;fillColor=none;align=center;verticalAlign=middle;whiteSpace=wrap;rounded=0;fontColor=none;fontStyle=1;fontSize=25;" vertex="1" parent="1">
                    <mxGeometry x="268" y="180" width="140" height="30" as="geometry"/>
                </mxCell>
                <mxCell id="35" style="edgeStyle=none;html=1;fontColor=none;labelBackgroundColor=none;labelBorderColor=none;noLabel=1;strokeColor=#000000;" edge="1" parent="1" source="36">
                    <mxGeometry relative="1" as="geometry">
                        <mxPoint x="951" y="416" as="targetPoint"/>
                    </mxGeometry>
                </mxCell>
                <mxCell id="59" value="" style="edgeStyle=none;html=1;labelBackgroundColor=none;labelBorderColor=none;fontSize=25;fontColor=none;strokeColor=#000000;" edge="1" parent="1" source="36">
                    <mxGeometry relative="1" as="geometry">
                        <mxPoint x="770" y="430.1714285714286" as="targetPoint"/>
                    </mxGeometry>
                </mxCell>
                <mxCell id="36" value="" style="shape=image;verticalLabelPosition=bottom;labelBackgroundColor=#ffffff;verticalAlign=top;aspect=fixed;imageAspect=0;image=data:image/png,iVBORw0KGgoAAAANSUhEUgAAAFwAAABcCAMAAADUMSJqAAAAolBMVEX///9cTuVAQLJNPOPJxvVOPuPZ1vg3N7BKOOPt7feOjsz08/1TROQ9PbKppPBaTOVXSOTU0fcvL674+P7l4/omJqyIf+ugmu69ufOknu+SiuzDv/RxZejv7vwqKq2tqPFHR7SEhMmsrNmDeupFMuNoW+eYmNHd2/e6uuDV1etcXLt6esagoNQbG6p+delgYby2svJOTraak+3Hx+Z5b+lwcMJNZwtqAAADC0lEQVRoge3Y23aqMBAG4BCI0AISQTwfqtWt1rZaa9//1fYE6gEIkmByVblrV/st1++QmQlyHSN9vM4YqX7OuEHNrqsNhw9v9PThRkCWDW048ItOWxsO0Xv9SBtuBF4w1IYDb45W2nDgnYGKqufjUJZeUx8O0dOWNhw+fF8nDsG0a5flOKrEh6RmWf6Lnypxy6xVlms79AVwAqelbFlu3iYYi+GsLKcStLsNfSyOs7K0BOno/cPGWAZnr+ynUPTrlxBjWRxOSzKoLMvNboJxHRx+JvuKsCc+rouzRnXjRJjHNsb1cRb9a0mj+v4KMb4PZ9EfOPR4d51IbRx+beZnBHf2kafr4qxRZaKf23aBTvGIkkASZ9lcxrNC2Fc4QlPPk8WBd7pRSdgZHI0HJpXF2YEDdTPnhJ3FEVodHU42t3HDhOHsmZd2DoemQL0CrwxHqFmIXiEO0eeyUYlD9Esz0IYj1DM8fTiK+oRqw2FSeT1FrwFHqLFMTwQtOEL7wNOHI7frUG04RH909OEItYyuPhxFK404eyyzLm5X4+1laaO6ifuTrchkv6cljeoWHr5tBGh43IPDbVTluG2vxegkm6PJyaYM9+NnwV1neEj+0OJEz8f9yY/wqmAtfnf1faFRcfHw61s8EYsEZJRck7iDBa3C7XguTqcvUbBIR6D2KJNNAbfDmdximb6hlDSTfxsuSTke/8je1Jxef2Kk0U8v2WTx8EUi7BwOg3+6j447p/HsGrdDqbDzOIs+3UdXo7TqL7gfzmrd62VORY+m++gwmRHOeLwTfNdv4pCNkeyjURei/8VDWz5sLs6WomNSE+MOcRg+Cd/r0rxmQZ1DEnDLgPVitq0+tWVwiD5Ioo+g9O+hS9ocRH/3DVUpnlwFKLg4LW3QlHTvvji90f0Xd98pV4wWD/yBP/AH/sfw1oI7+KvBUWPEG/wV4Qj1SPGGShkOIxDhZaMGv74m0YDDF1tcitThnH1UJQ77aDZ6pThE/3kdvWKcTZ+X6JXjsBSdo9eAo6fTVYAOnEVPxfD/iXQ/eoU3HygAAAAASUVORK5CYII=;" vertex="1" parent="1">
                    <mxGeometry x="923" y="401" width="60" height="60" as="geometry"/>
                </mxCell>
                <mxCell id="37" value="" style="edgeStyle=none;html=1;labelBackgroundColor=none;labelBorderColor=none;fontColor=none;strokeColor=#000000;" edge="1" parent="1" source="38" target="36">
                    <mxGeometry relative="1" as="geometry"/>
                </mxCell>
                <mxCell id="38" value="" style="outlineConnect=0;dashed=0;verticalLabelPosition=bottom;verticalAlign=top;align=center;html=1;shape=mxgraph.aws3.cli;fillColor=#444444;gradientColor=none;" vertex="1" parent="1">
                    <mxGeometry x="925" y="246" width="56" height="60" as="geometry"/>
                </mxCell>
                <mxCell id="39" style="edgeStyle=none;html=1;exitX=1;exitY=0.5;exitDx=0;exitDy=0;exitPerimeter=0;entryX=1;entryY=0.635;entryDx=0;entryDy=0;entryPerimeter=0;fontColor=#000000;" edge="1" parent="1" source="38" target="38">
                    <mxGeometry relative="1" as="geometry"/>
                </mxCell>
                <mxCell id="40" value="Terraform" style="text;html=1;strokeColor=none;fillColor=none;align=center;verticalAlign=middle;whiteSpace=wrap;rounded=0;fontColor=none;" vertex="1" parent="1">
                    <mxGeometry x="921" y="467" width="60" height="30" as="geometry"/>
                </mxCell>
                <mxCell id="41" value="" style="edgeStyle=none;html=1;labelBackgroundColor=none;labelBorderColor=none;fontColor=none;strokeColor=#000000;" edge="1" parent="1" source="42" target="38">
                    <mxGeometry relative="1" as="geometry"/>
                </mxCell>
                <mxCell id="42" value="" style="shape=actor;whiteSpace=wrap;html=1;glass=1;labelBackgroundColor=default;fontFamily=Times New Roman;fontSize=14;strokeWidth=2;fillColor=none;strokeColor=#000000;" vertex="1" parent="1">
                    <mxGeometry x="931" y="87" width="40" height="60" as="geometry"/>
                </mxCell>
                <mxCell id="43" value="Invokes" style="text;html=1;strokeColor=none;fillColor=none;align=center;verticalAlign=middle;whiteSpace=wrap;rounded=0;fontColor=none;" vertex="1" parent="1">
                    <mxGeometry x="951" y="337" width="60" height="30" as="geometry"/>
                </mxCell>
                <mxCell id="44" value="Administrator" style="text;html=1;strokeColor=none;fillColor=none;align=center;verticalAlign=middle;whiteSpace=wrap;rounded=0;fontColor=none;" vertex="1" parent="1">
                    <mxGeometry x="971" y="87" width="60" height="30" as="geometry"/>
                </mxCell>
                <mxCell id="45" value="Retrieves AWS credentials" style="text;html=1;strokeColor=none;fillColor=none;align=center;verticalAlign=middle;whiteSpace=wrap;rounded=0;fontColor=none;" vertex="1" parent="1">
                    <mxGeometry x="851" y="200" width="100" height="30" as="geometry"/>
                </mxCell>
                <mxCell id="46" value="Server Side (GFT)" style="text;html=1;strokeColor=none;fillColor=none;align=center;verticalAlign=middle;whiteSpace=wrap;rounded=0;fontColor=none;fontStyle=1;fontSize=25;" vertex="1" parent="1">
                    <mxGeometry x="545" y="180" width="220" height="30" as="geometry"/>
                </mxCell>
                <mxCell id="48" value="&lt;font color=&quot;#000000&quot;&gt;AWS Cloud&lt;/font&gt;" style="sketch=0;outlineConnect=0;gradientColor=none;html=1;whiteSpace=wrap;fontSize=12;fontStyle=0;shape=mxgraph.aws4.group;grIcon=mxgraph.aws4.group_aws_cloud;strokeColor=#AAB7B8;fillColor=none;verticalAlign=top;align=left;spacingLeft=30;fontColor=#AAB7B8;dashed=0;labelBorderColor=none;labelBackgroundColor=none;" vertex="1" parent="1">
                    <mxGeometry x="550" y="290" width="210" height="220" as="geometry"/>
                </mxCell>
                <mxCell id="56" value="" style="shape=image;verticalLabelPosition=bottom;labelBackgroundColor=#ffffff;verticalAlign=top;aspect=fixed;imageAspect=0;image=data:image/png,iVBORw0KGgoAAAANSUhEUgAAAZIAAAEsCAYAAADpQjX/AAAMamlDQ1BJQ0MgUHJvZmlsZQAASImVVwdYU8kWnluSkJDQAhGQEnpHpBcpIbQIAtLBRkgCCSXGhKBiL4sKrl1EwIauiii6FkAWFbGXRbH3xYKKsi4WFEXlTUhA133le+f75s5/z5z5T7kz994BQLOXK5HkoloA5InzpXHhwcyU1DQm6SkgAl1ABsbAjsuTSVixsVEAymD/d3l/AyCK/qqTguuf4/9VdPgCGQ8AZDzEGXwZLw/iZgDwSp5Emg8AUaG3mJovUeC5EOtKYYAQr1HgLCXeqcAZStw0YJMQx4b4MgBqVC5XmgWAxj2oZxbwsiCPxmeIXcR8kRgATUeIA3hCLh9iReyOeXmTFbgMYltoL4EYxgO8M77jzPobf8YQP5ebNYSVeQ2IWohIJsnlTv8/S/O/JS9XPujDGjaqUBoRp8gf1vBWzuRIBaZC3CXOiI5R1BriXhFfWXcAUIpQHpGotEeNeDI2rB9gQOzC54ZEQmwEcZg4NzpKpc/IFIVxIIarBZ0myuckQKwP8WKBLDReZbNZOjlO5Quty5SyWSr9Wa50wK/C1wN5TiJLxf9GKOCo+DGNQmFCMsQUiC0LREnREGtA7CzLiY9U2YwqFLKjB22k8jhF/JYQxwnE4cFKfqwgUxoWp7IvzpMN5ottFoo40Sq8P1+YEKGsD3aSxx2IH+aCXRaIWYmDPAJZStRgLnxBSKgyd+y5QJwYr+LpleQHxynn4hRJbqzKHjcX5IYr9OYQu8sK4lVz8aR8uDiV/HimJD82QRknXpjNHR2rjAdfAaIAG4QAJpDDlgEmg2wgau2q74J3ypEwwAVSkAUEwEmlGZyRPDAihtd4UAj+hEgAZEPzggdGBaAA6r8MaZVXJ5A5MFowMCMHPIU4D0SCXHgvH5glHvKWBJ5Ajegf3rmw8WC8ubApxv+9flD7TcOCmiiVRj7okak5aEkMJYYQI4hhRDvcEA/A/fAoeA2CzRX3xn0G8/hmT3hKaCM8IlwntBNuTxLNl/4Q5RjQDvnDVLXI+L4WuDXk9MCDcX/IDplxBm4InHB36IeFB0LPHlDLVsWtqArzB+6/ZfDd01DZkV3IKHkYOYhs++NMDXsNjyEWRa2/r48y1oyherOHRn70z/6u+nzYR/5oiS3GDmBnsOPYOawJqwdM7BjWgF3Ejijw0Op6MrC6Br3FDcSTA3lE//A3+GQVlZS51Lh0unxWjuULpuUrNh57smS6VJQlzGey4NdBwOSIec6OTFcXV1cAFN8a5evrLWPgG4Iwzn/TLYB73F/c39/f9E0X+QmAg2Zw+7d/09lcga8J+J4+u5InlxYodbjiQoBvCU240wyACbAAtjAfV+AJ/EAQCAWjQQxIAKlgIoxeCNe5FEwFM8E8UARKwAqwFpSDTWAr2An2gP2gHjSB4+A0uAAug+vgLlw9HeAl6AbvQR+CICSEhtARA8QUsUIcEFfEGwlAQpEoJA5JRdKRLESMyJGZyAKkBFmFlCNbkGrkV+Qwchw5h7Qht5GHSCfyBvmEYigV1UWNUWt0BOqNstBINAGdgGahU9BCdCG6DC1Dq9DdaB16HL2AXkfb0ZdoDwYwdYyBmWFOmDfGxmKwNCwTk2KzsWKsFKvCarFG+JyvYu1YF/YRJ+J0nIk7wRUcgSfiPHwKPhtfipfjO/E6/CR+FX+Id+NfCTSCEcGB4EvgEFIIWYSphCJCKWE74RDhFNxLHYT3RCKRQbQhesG9mErMJs4gLiVuIO4lNhPbiI+JPSQSyYDkQPInxZC4pHxSEWk9aTfpGOkKqYPUq6auZqrmqhamlqYmVpuvVqq2S+2o2hW1Z2p9ZC2yFdmXHEPmk6eTl5O3kRvJl8gd5D6KNsWG4k9JoGRT5lHKKLWUU5R7lLfq6urm6j7qY9VF6nPVy9T3qZ9Vf6j+kapDtaeyqeOpcuoy6g5qM/U29S2NRrOmBdHSaPm0ZbRq2gnaA1qvBl3DWYOjwdeYo1GhUadxReOVJlnTSpOlOVGzULNU84DmJc0uLbKWtRZbi6s1W6tC67DWTa0ebbr2SO0Y7Tztpdq7tM9pP9ch6VjrhOrwdRbqbNU5ofOYjtEt6Gw6j76Avo1+it6hS9S10eXoZuuW6O7RbdXt1tPRc9dL0pumV6F3RK+dgTGsGRxGLmM5Yz/jBuPTMONhrGGCYUuG1Q67MuyD/nD9IH2BfrH+Xv3r+p8MmAahBjkGKw3qDe4b4ob2hmMNpxpuNDxl2DVcd7jfcN7w4uH7h98xQo3sjeKMZhhtNbpo1GNsYhxuLDFeb3zCuMuEYRJkkm2yxuSoSacp3TTAVGS6xvSY6QumHpPFzGWWMU8yu82MzCLM5GZbzFrN+sxtzBPN55vvNb9vQbHwtsi0WGPRYtFtaWo5xnKmZY3lHSuylbeV0Gqd1RmrD9Y21snWi6zrrZ/b6NtwbAptamzu2dJsA22n2FbZXrMj2nnb5dhtsLtsj9p72AvtK+wvOaAOng4ihw0ObY4ERx9HsWOV400nqhPLqcCpxumhM8M5ynm+c73zqxGWI9JGrBxxZsRXFw+XXJdtLndH6owcPXL+yMaRb1ztXXmuFa7X3GhuYW5z3BrcXrs7uAvcN7rf8qB7jPFY5NHi8cXTy1PqWevZ6WXple5V6XXTW9c71nup91kfgk+wzxyfJp+Pvp6++b77ff/yc/LL8dvl93yUzSjBqG2jHvub+3P9t/i3BzAD0gM2B7QHmgVyA6sCHwVZBPGDtgc9Y9mxslm7Wa+CXYKlwYeCP7B92bPYzSFYSHhIcUhrqE5oYmh56IMw87CssJqw7nCP8BnhzRGEiMiIlRE3OcYcHqea0z3aa/Ss0ScjqZHxkeWRj6Lso6RRjWPQMaPHrB5zL9oqWhxdHwNiODGrY+7H2sROif1tLHFs7NiKsU/jRsbNjDsTT4+fFL8r/n1CcMLyhLuJtonyxJYkzaTxSdVJH5JDklclt6eMSJmVciHVMFWU2pBGSktK257WMy503NpxHeM9xheNvzHBZsK0CecmGk7MnXhkkuYk7qQD6YT05PRd6Z+5Mdwqbk8GJ6Myo5vH5q3jveQH8dfwOwX+glWCZ5n+masyn2f5Z63O6hQGCkuFXSK2qFz0Ojsie1P2h5yYnB05/bnJuXvz1PLS8w6LdcQ54pOTTSZPm9wmcZAUSdqn+E5ZO6VbGindLkNkE2QN+brwp/6i3Fb+k/xhQUBBRUHv1KSpB6ZpTxNPuzjdfvqS6c8Kwwp/mYHP4M1omWk2c97Mh7NYs7bMRmZnzG6ZYzFn4ZyOueFzd86jzMuZ9/t8l/mr5r9bkLygcaHxwrkLH/8U/lNNkUaRtOjmIr9Fmxbji0WLW5e4LVm/5Gsxv/h8iUtJacnnpbyl538e+XPZz/3LMpe1LvdcvnEFcYV4xY2VgSt3rtJeVbjq8eoxq+vWMNcUr3m3dtLac6XupZvWUdbJ17WXRZU1rLdcv2L953Jh+fWK4Iq9lUaVSyo/bOBvuLIxaGPtJuNNJZs+bRZtvrUlfEtdlXVV6Vbi1oKtT7clbTvzi/cv1dsNt5ds/7JDvKN9Z9zOk9Ve1dW7jHYtr0Fr5DWdu8fvvrwnZE9DrVPtlr2MvSX7wD75vhe/pv96Y3/k/pYD3gdqD1odrDxEP1Rch9RNr+uuF9a3N6Q2tB0efbil0a/x0G/Ov+1oMmuqOKJ3ZPlRytGFR/uPFR7raZY0dx3POv64ZVLL3RMpJ66dHHuy9VTkqbOnw06fOMM6c+ys/9mmc77nDp/3Pl9/wfNC3UWPi4d+9/j9UKtna90lr0sNl30uN7aNajt6JfDK8ashV09f41y7cD36etuNxBu3bo6/2X6Lf+v57dzbr+8U3Om7O/ce4V7xfa37pQ+MHlT9YffH3nbP9iMPQx5efBT/6O5j3uOXT2RPPncsfEp7WvrM9Fn1c9fnTZ1hnZdfjHvR8VLysq+r6E/tPytf2b46+FfQXxe7U7o7Xktf979Z+tbg7Y537u9aemJ7HrzPe9/3objXoHfnR++PZz4lf3rWN/Uz6XPZF7svjV8jv97rz+vvl3Cl3IFfAQw2NDMTgDc7AKClAkCH5zbKOOVZcEAQ5fl1AIH/hJXnxQHxBKAWdorfeHYzAPtgs54LuWFT/MInBAHUzW2oqUSW6eaq5KLCkxCht7//rTEApEYAvkj7+/s29Pd/2QaDvQ1A8xTlGVQhRHhm2ByiQLdXT5gLfhDl+fS7HH/sgSICd/Bj/y+iK5BL8UZP3AAAAIplWElmTU0AKgAAAAgABAEaAAUAAAABAAAAPgEbAAUAAAABAAAARgEoAAMAAAABAAIAAIdpAAQAAAABAAAATgAAAAAAAACQAAAAAQAAAJAAAAABAAOShgAHAAAAEgAAAHigAgAEAAAAAQAAAZKgAwAEAAAAAQAAASwAAAAAQVNDSUkAAABTY3JlZW5zaG900s3CLAAAAAlwSFlzAAAWJQAAFiUBSVIk8AAAAdZpVFh0WE1MOmNvbS5hZG9iZS54bXAAAAAAADx4OnhtcG1ldGEgeG1sbnM6eD0iYWRvYmU6bnM6bWV0YS8iIHg6eG1wdGs9IlhNUCBDb3JlIDYuMC4wIj4KICAgPHJkZjpSREYgeG1sbnM6cmRmPSJodHRwOi8vd3d3LnczLm9yZy8xOTk5LzAyLzIyLXJkZi1zeW50YXgtbnMjIj4KICAgICAgPHJkZjpEZXNjcmlwdGlvbiByZGY6YWJvdXQ9IiIKICAgICAgICAgICAgeG1sbnM6ZXhpZj0iaHR0cDovL25zLmFkb2JlLmNvbS9leGlmLzEuMC8iPgogICAgICAgICA8ZXhpZjpQaXhlbFlEaW1lbnNpb24+MzAwPC9leGlmOlBpeGVsWURpbWVuc2lvbj4KICAgICAgICAgPGV4aWY6UGl4ZWxYRGltZW5zaW9uPjQwMjwvZXhpZjpQaXhlbFhEaW1lbnNpb24+CiAgICAgICAgIDxleGlmOlVzZXJDb21tZW50PlNjcmVlbnNob3Q8L2V4aWY6VXNlckNvbW1lbnQ+CiAgICAgIDwvcmRmOkRlc2NyaXB0aW9uPgogICA8L3JkZjpSREY+CjwveDp4bXBtZXRhPgplJcx9AAAAHGlET1QAAAACAAAAAAAAAJYAAAAoAAAAlgAAAJYAADNdN5zz9QAAMylJREFUeAHsXQecFEX2fpzknFlQFFQEiQucngIqqCTDiYIROYLnqZgIgoIo4Y+AgCTBrGRRFMEASg6CIJJzEBeQsAssOQo4//fVbM329HZP2p3d7tlX/Haquyu9+rqpr997VdU5PBzIQaFixYq0cOFCqlChgoOkElEEAUHAaQj07dtXidS2bVsVy5iRdXcoh9OIpFGjRtS7d29q2LBh1qEiLQsCgoDjERAicc4tEiJxzr0QSQQBQSAMBIRIwgArylmFSKIMsFQvCAgC0UFAiCQ6uEZSqxBJJKhJGUFAEMhyBIRIsvwW+AQQIvFBIQeCgCDgJgSESJxztxxHJO3bt6c77riD2rVr5xyURBJBQBBwHAJCJM65JUIkzrkXIokgIAiEgYAQSRhgRTmrEEmUAZbqBQFBIDoICJFEB9dIanUkkWBhEdaSSBAEBAFBwA4BIRI7ZDL/uuOIRD8cQiSZ/zBIi4KAmxDQY4WsbM/6uyZEkvX3QCQQBASBCBAQIokAtCgVESKJErBSrSAgCEQXASGS6OIbTu1CJOGgJXkFAUHAMQgIkTjmVpDjiGTcuHG0ePFiGjt2rHNQEkkEAUHAcQgIkTjnlgiROOdeiCSCgCAQBgJCJGGAFeWsQiRRBliqFwQEgeggIEQSHVwjqVWIJBLUpIwgIAhkOQJCJFl+C3wCOI5IFi1aRHhA8JVECYKAICAI2CEgRGKHTOZfFyLJfMylRUFAEMgABIRIMgDEDKpCiCSDgJRqBAFBIHMRECLJXLwDtSZEEggdSRMEBAHHIiBE4pxb40giwTdJEhISnIOSSCIICAKOQ0CIxDm3xHFEsnv3bmrUqJEQiXOeEZFEEHAkAkIkzrktQiTOuRciiSAgCISBgBBJGGBFOasQSZQBluoFAUEgOggIkUQH10hqFSKJBDUpIwgIApmOAMze+OidDkIkGomsjx1HJIAkR44c5PF4sh4dkUAQEAQcgwAWK48fP57wIauGDRuqhcsQDud79uwhbPiq0xwjdDYRRIgkm9xo6aYgEAsIYCIOCKVVq1ZUsGBB1aXk5GT6/vvvKT4+ntauXRsL3XRdH4RIXHfLRGBBIPsiABIBmRQtWpQuXbpEOXPmpOPHj1O+fPlo1qxZSlPJvuhkXc+FSLIOe2lZEBAEIkDg1ltvpRUrVviVFG3ED45MP3EkkRxYv4iWj+tPt1UpSwXrtab8NZplOjDSoCAgCDgTAWglzZs3p/PnzysBYeKaOHEitWjRwpkCZwOpHEUka6YMooSV8+jM8aMK+iZVy6j4H4VLUr7qd1Gh+u2ywS2RLgoCgkAwBIxaSdWqVWnZsmXK3BWsnKRHB4EsJ5JTiQm0c+GXtGnO1DQ91ESiE4RQNBISCwLZGwGtlcBHAkc7ZnFJyDoEsoxIAhGIhsNMJPq6JhSYvK4oHKcvSywICALZCAFoJTBvyUytrL/pmU4koRCIhsWOSHQ6CCV3+Rps9mpCea6O15clFgQEgWyAALQSBNFGFAxZ+pNpRAICWff1SEpYvSTkDgcjEmNFeas1EkIxAiLHgoAgIAhkEgKZQiRwolv5QIL1MRwi0XVBS5GZXhoNiQUBQUAQiD4CMUckGjLtR5GZXhoRiQUBQUAQiA4CMUskGi4hFI2ExIKAICAIRAeBmCcSDZsmFJnppRGRWBAQBASBjEEg2xCJhguEIjO9NBoSCwIZg0CrbocJ+3Xn4D+JQ8dh2pBSGXMDsriWiIhEz8CqnCtZrTjPXT4+4PTbzHS2h4OnzPQKBy3JKwjYIwAiMQdNKObr+lzSibIlkeg9sMxbmODB0G/6ucvXTLM3llOJRD/QkF1memk0JBYEwkeg5SuHwi8kJWja0NIxgUJIGol5Dyzdc7vpuRiYcxYpTbl4sSC0lc3Lfsq06b9atkhiyC17ekWCnJTJ7giASPAxOu9H6fBxOjZxyXlQPL55x7ufoNufH1siCWUFuh2RmEHZdfgM7Tp82nw56Hmo9QetKMwMQihhAibZsz0CD3ZJzPYYRALA9GGxscWTLZHsmDuJVnw+LCA2oQ70biMS3WlNKDLTSyMisSBgjcBDTCTweeigne5y7kXADg8hEsYn1olE/ycAochML42GxIJAWgQe7HwwzUW2bCkTV5qElAuSTjRjRFk7eFx1XTSSMG+XzPQKEzDJni0QUEQSQCUpU/wKKlX8H6lY2L2ip+TYtOuidx6xLhEkv2/ecZTzV78+l7eFEOTZtJP7oINN/umxQiTJU7p4/lG4DL9x+8+2EtOWfgKsY2gpsTLTa//+/VSqVCnKnTs3HTt2jIoVK2bd6ShfPXfunGq/XLlyqiUty8mTJ9WHi/BVPITk5GTasGGD+na3uiA/WY5Ai5f3B5RhxsgrA6abE4PVZ86fGecgww97h+7TOJR8mf7XL7DvKFxcMqOfkbSR4+DgZsb3CN803v1HjtPqhT8FrDO7mLYCgaD9KG7c02vOnDk0YsQIuu6662jnzp109OhRatmyJb366quqy5cvX6YrrrgiUPczJG3evHk0atQoKlKkCJUvX55WrVpF+HxqtWrV6IknnqAOHTrQ5s2bCYSCgM+qPv/884p00iPfpUuXCB9GclJwokyh4KMGfowkePPWIeW8+nW5qf9L4S2886tP16tjU/1pVkBGKb10sSvooz6hEwnE6PXuYdq08y//FYoG+WaMCo9gdVGnxWmIRAt44Pg52nTA+x9XXzPHQiSpiLiNUDBgVa5cmSZMmED169dXHenatSuVLl3aRyT9+vVTA3aJEiVSO5rBRytWrKAmTZrQ0qVLqWbNmr7a+/fvTwcPHqQxY8bQpEmTqGPHjj4iQSZoL/ny5fPlD/fg+PHjNHz4cOrbt2+4RaOW34kyhdrZB17aZ7ukvcb1IJLU9RKHki/R6+8eIcQ+k5Q2/bg4Ll0sJ33c159oeo06RBvNRKIJkeNv370qVIgdnU+IJINvT1y3HzO4xuhUt337dqpSpYr6TOl9992nGtm9ezd9+eWXikh0+pEjRygUItFrBszS2l1HvosXL6q6n3zySXrvvff8iiINxAZN5YsvvqD//e9/fkRiVW+o19DQM888o7Sed955x69dfWJVF9Lsruty4cTmuoLJFE7dmZ23xYv70igGerysXimVSEAepUvkVCTy+qgjdPjoJdtyurwb4jLFc9JHKSSi+4h7oInEjh+FSBgk0UjS/nd1C5FAIylevDidOnVKmYpat26tFk/9/vvvVLRoUbrrrruUH+L+++8npD366KM0ePBg9VnTlStX0mOPPUbQWP7880/CYPzLL79QixYtaMiQIQQtA3W88MILdOjQIbryyiupd+/eVLVqVT/A1qxZQ3Xr1qVPP/1Uma/8EvnkwIEDBH+JkUhwDe1NnTpVtY0yaO/NN99UvhPI3aNHD9qyZQsNHDiQKlWqRHny5FFE9cgjj9Ann3xCo0ePphdffJGuvfZa+uc//6n6D/8QwunTp1U6tBWU79Spkyp75513pukPyowcOZLgY7rttttUH6FVgYzRZ4RQMXvppZforbfespRJVeTwnwde2GtLCNUr5aG3XvYuvHv6zQN8XDqVTEYeoiQmE7uB1g3XSzGJfNLP69cDiYyclOzrb6+RSbRh5wXb/n03+mqH39nQxIs5jeTk+YtUOG/KzIrQMMjQXG4hEnR6yZIlBG0EZNK4cWNlRsLAiwBndq1atUhrJB9//DHNnDmTZsyYQXv37qVrrrmG3n33XeVTgRkKGsXQoUMpKSlJDb4gHwyiN910E2EAP3v2LP3www+qbv3zwQcf0HPPPafkwEBsF4xEAnnQDtqDzwQOeZAB5EWAltW5c2f697//rWRLSEigyZMnK5Jp3749bdq0SfleWrVqpfpg1kjOnDlDU6ZMoaefflqR2/XXX69MfyBCc39gdkNb06dPV0RWqFAh6tatG73xxhuKZMPFDGQCXM0y2eHipOuKSFh18K5o94+rX89E0slLJMgHE9BbnQxkMuIQHTrGmolNeSdfL8Pa1ccGEhnFJLJhxwX6boyXIBSR8LkVLuiXzuekexmJLDFHJMt2JdNm9u2UL56fri6Wj6qVKxwJLhGXcRORoJN4m4ZJBSSBsGDBAjUbykwkcHxj0Pzvf/+r8uHN/8KFC8q38f7776vBfdeuXSoNMQZgDIwIGLx37NhB27ZtowIFCqhr+OnTp4/yUaxevZrq1Knju24+MBIJ0kAMICAQCXw8GLyhISHAcQ8yBOGBLK6++moaNmyY8qnkz5+f5s6dS3fffbdKsxu0N27cqPw1IEw4/wP1B+SycOFCRYZoHwQGsyD+wsEMZe3IDWlOD/d33GMrYg3WSAZ09voOdD6YggZ0LuPTTHoOT1KaiW0lDkxAHz7p79U8oYmMmHCE/SEXlKTfv3eNinsOT/Rds+qCzmeV5qZrMUkky/846ncPCufNqYiletlCKvZLzOATtxAJfBAYiLX/A4P1448/TldddZUyGRmJBCacwoUL00cffaTe1AHZgAED6PXXX1emIDjD4cvAzCoEDKwwBUHTwewruzBu3DiClvD555+rtu3ymYnkq6++oqeeekrJD/MaZp/BWW8O0ITQHxAJAvaBmjVrFmEacaBBG/2oXr260q4w+SBQf0CGMOtBBgRoKTDp7du3T7UdKmYoG0gmpDs5aIKwktGKSJDPzWQSiETQN00QQiQunbUFjcRMJLixOmhSgbaij3VaRsRuIRL4Gj777DPq1auXr9uw98MngGnA8H1o0xZ8KXizb9q0qfIxoADMP8gLU9aHH37oRyRr165VGgZMWffee6+qH5rOzTff7EcsGGzxxg9SgO/CHObPn698NYGIBOY1aD5YWwI5Eb799lt64IEHlEktI4gkUH9gZjMSCcgR8pw4cSIszCC3m4nkvucS7GdtsUYysIvXh2DOB9PQwM5lqXRJdsAfuUQ9hh+kJIfP5irDprlPB5THLVOTBoaPx8ws1kTYVKWdIT98UFGl9xx+gDZs5zQbZ4/OpzK7+CfmNJILFW6hzYnnKGHLOkrY9XvQW6PJJKO0FTcRCfwSy5Yto7g4r9kBzuWff/5ZvbVv3bpVOccRY6otiAN/WG+SN29eeu2119SsK9jzYdqChgLyQYA/pGLFilSyZEnlSIdjHwOsFVnA9wCtAmtDMHtLB5BQYmKiMqWZp/8aTVvr16+n+Ph4RRqoC5oUCOqVV15RZibty0G90Ei+++470hMIcA0ObkwMwJ8O2rS1Z88eRQaB+gONBBqS1sbatGlDMKGBXLt37x4yZmgbfiUEK5lUgoN/7nuWicQm1LjBQCQW+fB2P7CLgUyGMZmwA96JAbL6SISJb/gEJhH2gZiDJogeww5Ypuv8Op8+d2scc0RSoN6jpBcHJu/doe7LzpVzadeGlbR2xbKA9wmkUiRfLrqKtRVoLPCzhBvcRCSNGjVSpFCvXj1lJgJhYF1FjRo1FHnAvINZTHjDxwynhx56iHLlyqUWMMIpPX78eEUs8Jtg5tSgQYN8a1BgDoJWAPMWCAsmH9RrFeA4R7sgHqxpgdntlltuUb4bkAIWJMK3ARMVZIAjHOeoE+tLMMOqS5cuqmqQEbQUzCzDGz5W7I8dO1b5MOAEB4lgkIeJC3K3a9dOaWYgGQSs5YBGAWIDKUBLw0p/u/5oPw9khP9n3bp1NG3aNNUuZqyFgxlmr1nJpARz+M99z/zheyHXouoX9Oo35KVBXVM0Es6ng05HHAfNhLUWn2bCA3AiayZWL/JW5Y35opWOacufDfA60aE9DWNNZNOO875+6/6g/R8+vFaJ0eMd1kg4j518M1PyaZndGsc0kVjdFJBLOMQSrtPeLUQCLQEkAd/HH3/8oVaVY9A1BuT5+++/1dYp+jq0BCwExCr0YAGEANMXzEuhBJjbsFK9TBnvDJ9Qyug86AuI0NwHnW4VQ9OA9hBqsOqP9pHAz3P+/HnLvoaDWbgyhSp7tPOBSOxCDSaSgRZEYs6vzFwmMlFmLnPGLDiHbJ8aSESZs5gg7IKRSDaGkM+uHrdcz3ZEYr4xRmI5fjjJ1hwGbQUBs8ACaStuIRIzDnIeGQI9e/ak5cuXK40lshpio9S9/+MZe5jPqoOe7xrmeekSuejtV6CZ5KJ5y07Q8HEpn/CNsD7dvG/+rb4QZn0DWaaalfOzH+ciDRuX5DVXZUB/Z358vZbI1XG2JxLz3TMSS+If2+jC6VPKKY98+XN7953KeUUOur1SScqbK+0+VEIkZkRj93zx4sXKtAbfEPxE2scRuz2279m9Twf3R9qX9k8BmbS+v2gqifgnpzlDfoSarPmUYac9AsxQICNjAAkgYKpuEpumko5epI3b7bUKY1kt07zlp0IuYyxvdyxEwsg4cWW70Udid/NCvf7z6E6UsHqJZXYhEktY5GI2ReCe/+7M1J5jYG9cvxA1rlc4DWGEKwgIZsP2szTvl5Mch0Ys4bZhl3/WJ5Xsklx1XTSSALdLiCQAOJIkCBgQAJHoFej6cjTOa1XJS13ax1mSBwghMTlF6zBoHzC4wceBoLWUOCYifawSUn5Qx1wmlMnfHc2U/vz4qRCJYzUSuu4OOpW0h04f2kenj+yjM8mJdOZoEp05dpiKF8hDt3f/lK4o7J3yanyIzMdCJGZE5FwQsEageYftptlLOfjc4zdbSc9q8sbhp3fpUIYaN0idpp3Egz78KBu2nWVN4lzY7cP8VZZNYTWq5Oe/fOwDSd11YfK3R2jit8kZKr9V/3/6rLI1oC67GnMaSbDvw19ZNB8/NNdSiceHBCUTIRKXPc0ibpYhYCQSLYQeODPivFblfDToVe/U2w3bz9CwT5KU9uGdtO1tIb3twVzWpEFhav1ASVXhq2/vVQSVEfKjDiv5hEgYGCf6SEIhEsy8wvdDSj8zUT8jlrEQiSUsclEQSINAs/bb0lyL9EIZHtBrsoYwd9lJXxVtHihBrVt4p6dnZFu+BlIO0Pbg165mp30umjzjsNJKkFRLaSz5fefmcpGe/zS2SqRFHVUuW2okeiPH3OWrUvHHrL9HgbskROKoZ1WEcTACanDXr9wRxhjElUbAhAGzVdtXeEpxykq+Ni1SiSTpMExax2nijGRfus4XaQziQNt3s+kMxwg+IuH+DH6tPJNbASXXvKXHac7Sk+o40vZ0uZ/GCZG4WiPR/yfzVmtERe/prk/9YiESPzjkRBCwRaBp262cFhmDxLGfAr6PJx9MXRALsug+aDcl8jRd1NuGycWYDkGQJyn5L9qw9Yzyk6xnX0mozBJXKrdywIMcat7I/pEqaTcXnTT9kJesbNqf8/Mxmsx+lMTDf4Xcrlm+2eP9v9GDfrkxZGuNRN8wuynDQiQaIYkFgcAING27JXAGm9Q2LUoyQZT2pYIc5i49xgP4Ed81HOh8Ot1Yxi8jnyAPQlKy/x5YZUrkoTKl/NeWqIwpP7rumjfmV8TiJZJUOeJYU6nJjvnGtxXxEY8uY5bXWG+gYyESRsfNPhLzzbUiEyESM0pyLghYI9D0P5vD0kfK8qDc5elyVOtGryaAAXniN0nsFzlhWc9/WFsBeWzYdppeGbCHZ1vlohq80rxm1QKkBviUeqyls7+qiIA1C5iaJkw/rCxOQ3pcw1pKQZr0DTSSw5byoP3BPSr6iAn1dBuYoMxd4ehlcyZUsxfORSmikaTcLDjfC9ZrTflrNPPdPiESHxRyIAgERKAJE0mooRabk4b0rODLjgF7Ag/YgcJ/YNp6iIlkKxPJwD1psoJMEMqUzM3E4l0zgmNzSDrylzKXeWOv5mLOM9RAJIHkQptNYJJjuRBAJpOmJ9HspSfMVdqeC5EwNLGkkeBOg0yKNO9Kea6OVzdeiETBID+CQFAEGrfZxHmCv4vHlcxDE4ffoOpLYt/CkI/203rWMsy+A/N5W9ZGnnyoDK0HkQxICJrfXD6c86FMctCUJrGGNJ61lGD9AqEM7QntJDeTyV9KvkS1IDI4HnMnWu+IrQBy0Y9oJKabBTLRa0yESEzgyKkgYINA4zYbg423Kn3o6xXVII0B98nO20Me39vyW7+PSN5iIkmZzRWNGKQAIpk4LYk1pUMh9QvOeyOZPNmF+xacR2juJCGSmNNI9P8RTSa/TBgke21pUCTOtgjgWzH4aFigcHfrDf7JeqA3XAUZtGnp3VHilf5/0DrWLmyDqbwuu37rKera30AkdhWYyqfJFiB98ogqSruYOC2RxrPZzTJYlI9jU9qkkd7pvLOXHKUhH+6zLKouppSfN7mmfR4XpYhGYnOzQCbbL5YQIrHBRy5nHwTat29PM2bMUJ9WtiOUxkwkVi/gGiWMm5NSBuihH+yl2T8fV/mN6YHKayJBfgzwE3iAR34d9LhujsNNN7ejicRcrz431x/P04iHvnGtMnG17pS6SFPnN8dCJIxgrPlI9EOh4wMBvlsvu/9qlCSOdQR2796tPp1csGBBypkzpyWh3P3Eet7kkPfW4u98+AjBcF6bTUVD37hOQdX6pS3e2U2GdDXABjhvy/6R/7RK3R8PprHZi5PZ+X6W1rJmE6x8oHQsQGx6e3G/+iHohK8P+ggrUHljf8uWykOTRt2o+tm13+/s/zljiYeub/4Urz9WFXDxj2gkQW6eHZkIkQQBTpJjCoGHH36Yvv76a9Un/X37Tp06+UxePiJRQzpn45FSEUvKebM7itIrz16jBv8hH7DJx5Qe7Pw/LUvzQF/WEtPEQ38xMV1QCwM3bPGay7AynnlJaQaqELeHWVwYwLGWBI7xWlUL8l+hNHWivrjSub1EMi3FtBWGvO+wRoJ6FREFKS9EwvDHukainzCr/bvsiOTDs7foYq6I8bYpIToIxBK26Au+Z48/HaCh5M2bl4YMGUITfwr8Zt22JWsUD5el9VtOUZd+vPVJmMFYfvD7e5UGUauaNRGEWbXKDvKYwxrOeHawD3vzOi8RfHVQnYdbX/dny1PThiVo9qJkGvzBnwGLz/8iMG4BCzsoUTSSEG+GmUxihUiuueaaEBGQbJEgUKFChUiKOa4MvgY5YsQIH5GYtZK7HlsXUOb4GwvQO70rEQZsmLbCDUYiMRJRHGsX8bwoseaNhZQWgXqttAxje1qDWb/Zq72APIwhvUSiyWHI+7vpp8XHjVWnOdZ50yS47IIQSYg3LFQikU/thgioZHMVArVr16Z169aRmUB0J+58dC1sWWyyUjagNDFMRZ+Prq6yd+mzg2dsnQmY31xP24fjqO3D5Wj95pPUuS9/1temHeN1tTAxJZ/asyuAfMZyw6GRVCtM46ce8GokIZZD/5s1LE7dO1ZQ/bzzkTVB5VwwtY6G0NWxEEkIt+/o2b9o1W7eRsEQ7DQSTSRuM2tcuOC/L5Ghq3KYTgTOnz+fzhqytjhmbPXp04dgymrVqpXyi5g1LTVoBhFzeO/r1QANjaBr3+10MGVPrCDFVHJbdrS3fcRAJKEUijCPllMRydeJYdWiy85eeITeZhNcsCBEwghlBx+JFYng4Yg1IoGtW0L0EHAzvs899xxVqVKFXn75ZQUQ+mLuT6OHVwcFD4v2hve5gU1QedjEdYEef35T0DI6QztoJI9cqTSSTn126stRiUf0qZSikeyncV+FTiTDuVw8azIIT3TcyESJXYEDh4Vf1Q2cwSWpopEEuFHnL16mJTtTd/80Zg1GJMa8ciwIuBUBaNZm7cOqL6EQCcrV5plSw/pWVlXATPX2mD0hDbiaSEBAMI2FMkhbyRnsWlkmu2EpZDd+auhEoskH9XfpvZ3WpsweC9aeEAkjFMsaiSxIDPZfQNIFgVQEGrZcxSe+FRV8jIm21uftH2Ht4tGrVGEQw+yFh2nsVLz5W+fH9fZs1mr76JWGMke4zAE+t28nUH1W5SBX00allMaEhsZ/uS+oXPE8zfe1FysayuwPS65F025SfXL7j2gkNnew2KMDaeV342Rluw0+clkQMCLQsOVvxtOgxzBzjehXxTAA76MfF+qPRKUt3v6Rsj7y0akgoXWbTvKU4pN0MOkireOpxeEEyNC8UQlVRBObsbyXSA4aL/mOdVldDrIMejchbBmESBjSWNVIQCLYAVg2bfT9v5EDQSAgAnc8tDJgulWidzAuSe0eS9VO1m06QT8xoazd7E8K0EiQDwP2TwsO+8oY60WaDomHzqu8+hwxfDPeOK/vWF1I+dF1x1cvRPHVi9C4L6CRQOtJDWaZkQKZX36TN2mMICz+5uYISjmviGgkpnuiSQSXhUhM4MipIGCDQEMmkjBmyRpn21I7Jolmd6aalNAEBvWXe23lFet/qXo7PMqmLSYSNWi/sZ3K8nTi+GoY8PmvWhGKK+MlCRvxbC+jHdSZxDPJPvvygJJrRL/KPiIZx0SCftXmdpqx9tLsztSvOSYmec1yulwk/V88XYgk5jSSws1elg9b2f6XkwRBwB6BO1r8yp4M3muL/0USl2VtIb56QWrOAzW0AYTbW6zw1deB/SPtHi+vBv2XmGDM7aA8tIWyTChxvN8VQhm+ZvSgaI3l4OHzlMSmsDXs7DfXg/OR/at4iWTKnzSWyQX9GdX/Rp9cB0EgCw4x8ey3LB9O/5fMcNdOGApYix/RSFJAkU/tWjwdckkQCBGBO3jQNwftOjdf1+d26Vi8CA1g1oJkRQTI395AJNBUEOzKq8R0pI9MIY1xikj2q+rQPsKPPDEA62AQMqJ9IRIGMlZ8JLnLV6Xij72jHg7jj5i2jGjIsSBgj8DtDyz3mbZ0Lm3qyYjzDo9BI7ma1m48rkxeqDMj6zfWByKpXaMojft8r9I6MkJ+Y/3G+n7+7lZ96uo422skdiSCuypE4upnW4TPRARu+/dyv9ZSdibxu2Y8CTe9TvXCNHJANZ6dxWal+UlqgAeR2IVw69f16HZwPnDkTpo133odWaT163Z0eSESRsTtGkkgEsENFyLRj73EgkBgBBrc/wtnMBt79Lk51nWZr+vztOnl2N/Ro9P1SlNAKghl3JQ9NFMN9LqcjtOW9183kja9DvtlUH/ZMt4dHqD5vNhzM2c0elkir9+/ntT2l35fX5+4Os62GgkWHJZ+ZmLAmydEEhAeSRQEfAjcdv8yZWrSTg3lxFa2J28WNRwbxuFI0vHRqOZ3l6L2T1zja/dgkncfs3U88K/byOtJUqYAw7F+gMkmVR4ilMc5pgFrp3x8zSI+ctKVgkRe6rmF+8MCQ3AOGSG/0qB89fGkBL6w9AchEtdqJDWqXEtFmndVa0W8j4n1rxCJNS5yVRAwI9DgvqWpPosUwlDjsBqBOTfHGXUOQujQujyTSpxZjHSd/zg3kX6cf4jWMCFlpLxaUbPq/7KZDdIls1MKx5xG4rm+ARW89Qk6uHGZwjhp+yo6c9T7vYFDCdvpyqL5qEHnMUFJBIWFSJzymIocTkegwb1LM11ETPmtU7OwmpYbxyap2jWLhiwDNJlE/lu38QSt3XCC1vAK+awIS4VInOkjsZrGG+kDIkQSKXJSLrshUP+en7nL2naVvhiLDd99uxa1ao/V8gaVJoT6y5aGj8PDpqt8lvLAt3KQV72HWy/y9+p8PX06+c+Iy1vhs2zW7SyL+0PMaSRCJO5/KKUH7kOg/j1LrMbJsMdr+C6+HvcvBcCaDcfoxdc2Zki9YfJRGrl7dalEzRuXZSf/eXqx+3refZj9L+njS1V+2Y9CJI70kaSXSC6fTKLzO71msZPbltGxY0fVQ518JJnOnT1Hp/F35mzQ75G4bygQiQWByBGo12yxbeE6NYrQ6CHxKj1QPpDItPHeld4HE8/TW+9sY3/FCdt6MzMBso1+O57KxuUlyPbCq+vUzDE7GX756Q6V9EK3dQH7oPPZ1eOW69leIzESx4U9/GnMQOHiebp86gidPXqE8uS4bJlTfyHRMlEuCgIxikB9JhK7F/TaBiKxy1cOmogFiYRn2EqjSKRXEfErj/28zGSC/bas+q0JQhOJXT90Prc/FtmOSMIiDr67f587SR7+u3yaP7V7MfgXz4RI3P5fQuSPBIF6zRap6aw5eKWdnp2E6a04r81rNMYMra2q9ebjAZ9HVp2OvbG+mehd4Y23/f5Dt9Ja3khRp5vry8rzcuzUHz24dqpm0n2tmmZs7A/kWz67oervC6+spdWsVZnT9fny2Y0igdtxZWKeSMIlDkrROjznTtPf58+EfcOESMKGTArEAAK3Nl3EvcC7uQ76HZyoLm83MjqFSG5tujAlgzcdCw2nTaynrilzFpPIal7HkapbpK3PeyW1/sw+h8yjh9RJJZNua+iA2n8rtf+aILxEYt8fnU/30q1xzBFJvpqNKWfJCup+BDVVIRcTx9+XeKtqaB3HvNOEVeEIf4RIIgROirkagVuaLLCVH0Qy5p06Kt2YDwPyN5O8C/KUJjJkSwqJ2FblmATIPmZoXR+ZPP/KaiYTdsCnhBVz7lRHz3ddE7BPOp8u59Y45ojkimJl6Iri3g/l2N6UdGodtvVyghBJIHQkLVYRMBKEuY9WROJmEtH9C0QmmiCESI6fo00HAi/SceJeW5ZEksFah36QrGIhEitU5FqsI/CvxvPh9EhxfnBvleUJpp4cbNoqQu8N/6eCAPnKlcpL0z/Xmsg5+r+3N9Nq9onYlVcmM69TwbL+rEwvVzofvTcMZq58PJvrHHVkDeQATxH+dd5dqr8dO69mjYT9qzby/zrvbpXP7T+xq5FEUesIdNOFSAKhI2mxisC/7mYiMfhI9Aej0F9oJJpIHnxiKZOId1sQDLyKRCx8IsbyXsz8fSJOSi/HiyDfGwYzVwqZdFnt62PHzqssfT5afiESvrtO1Ej+kbdARE5y78Oa/l8hkvRjKDW4D4F/3TXXNw1WS+/VR5hIahbzEYlOA4n0Y00Eiw510PndeK7IhLUuTSaIERSRpPTRqn8r5zfW3XV1HHMaSVbfDSGSrL4D0n5WIAAisWMSM5H4NJH1MPkYpLUaaV2UXpZNdu+P8JKJ7pWRSKzw+XWBEIkjNRJ9A7MqFiLJKuSl3axE4OZGc7h5ayaoW6sYD7A3hSVeoPpSK7JuL1rpWDQ544s7UqsP4ei5Tr/RahCmCmnlXbmwaQi1OD+LaCQZdI/wfZN81e+iQvXbZVCNUo0g4B4E/Ad+PWAiJsIivnAH4NT6NAbaR2KOMy89EiK5udHsFAHNcnvPY5ZIMCDmLFKa9iefpLWrVuu7ZBk70UdiKWgULwKvgvVaU/4azaLYilQtCDgbgZsaYsA0EogeOL1yl+PdeMvxPlVeW5Yxn+6Xzu+NV63HIj4vEXlz+Ken1mNdPhrpIJJycflT5NLy2Le/ar13n75A8v+2KDbGjRxJHzzpwZv0FYXj/AbDHXMn0YrPh2mULOPsTCT4TG+Bem1C+q6JJXhyURCIIQRubvhT6uxdHv/9ZrvKuS0evy2OESLh/WyMtO97tIVIfFD4HWB3YWgfIF4JgoAg4EXgn7f/KFBEgMCqJc0jKOW8IjmESILfFPF/BMdIcmRvBLxEgndSbfKR2NrU54/LqiX3xMSDI0QS4DYKgQQAR5IEAQMCdW+bxeMmbFh8UfEJH8h5UDxWL73XgKJ7D22J5FRiAu1c+CVtmjPVtnex6iMRArG95ZIgCFgiULfBTMvrcjEwAjFPJLr7mlASVs6jM8eNsxDsV7ZjIMbMr1zla6jpsGumDApISLotcxwqUZnLRXoOuWUGVqToSbnsjECd+j9k5+5H3Pc1y+6LuKyTCtpqJGYhQSgHNy6jP5bPpEMJ21WycaDXb/G5y8enmcnkdCKB7EWad00jtxkDORcEBAFrBOoykah5O5iuxbYttZeUbxNH7weuJB2mP3981vxyvzWgLrsaMpEY+wVSWfZRT6pTJqdahGdFHsb8TiUSmYFlvEtyLAgIAoJAZAhERCThNuU0IhECCfcOSn5BQBAQBOwRyDZEok1vsoWJ/cMgKYKAICAIRIJAzBOJEEgkj4WUEQQEAUEgdARilkiEQEJ/CCSnICAICALpQSBTiCSU7VasOmGcFWaVbnUNBCJTeK2QkWuCgCAgCEQHgUwhEogOMjFOHQ6lO+EQCTZRLHJPN9kDKxRgJY8gIAgIAhmIQKYRiZYZU4fXfT2SElYv0Zds41CIRGZg2cInCYKAICAIZAoCmU4kuld6xXwkW7CI/0OjKLEgIAgIAlmPQJYRie66JpRQtmARAtGoSSwICAKCgHMQyHIi0VCAULAFy8ZZ43x7emnTlhCIRkliQcA9CBw9epSKFy/uHoGjLOnff/9N+/fvp6uuuoouXLigtpTJly9flFvNnOodQyTG7mrHPLZgkRlYRmTkWBBwBwIYKKtWrUqbNm0itw2WK1asoB49etCiRYuofv36CvA9e/bQ008/Ta+99hrlzp1bEcGwYcOoZ8+eVKhQIbrlllvU9YSEBKpbty717t2brrvuOt/NGj58OM2ePZsqV65My5cvV+Xff/99qlevni+Pqw/wYSsnhoULF3rwJ0EQEATch8BXX32Fr5J4vvjiC/cJzxLPmjVLyb9u3Tol//jx49U5k4dff+rUqeN54IEHfNeOHDmizkuXLu3ZuHGjur5r1y4Pk43n1KlT6vzMmTMeJijPsmXLfOXcfuBIjQTMXLt2bUXQa9euVbH8CAKCgHsQuOeee2j79u1UoUIFmj9/fhrBeeDkjXCxE27mhlDb5UGeGjRoQEwkVKtWLTp79iwVKFCAmjdvTkwyPqGbNGlC+fPnpxkzZviuMWHQlVdeSRUrVqT169fTZ599Rk899RQdPHiQ4uK8n+ieNGkSXXvttaKRRJNBoYnkzZvXU7RoUdFKogm01C0IRAGBHTt2eJ544gkPD6DqLX7nzp2+Vvbu3et58cUXPWz28nz99dcevLnj+Pfff/f06dNHvbnzYO1h05gqg7f6du3aeXANb/9sKlPXhw4d6rnzzjs9jzzyiOfhhx9WaS+88IJK++GHHzxPPvmk54YbblBpycnJnpMnT3oGDBig2ps7d67Kj7Z/++03n2zGg6VLl/ppJBiTmCk8/fv3N2bzNG7c2E8j0Yls8lL50TaTiTpm4vCw2UxlYf+RB2mxEuDwcVyIj49XwOPG4ViCICAIuAcB9iN45s2b5zlx4oT6f9yrVy+f8ImJiYpI8H/73XffVeYfdj57MMhOmzbNw34JVWb69OmqDMgCBIBw2223eTp27KiOu3Xr5jMVjR49WpVZtWqVB6Yo1IW2T58+7bnppps8Dz74oDr+4IMPVL4OHTp41qxZ42G/hiIiVaHpRxPJ2LFjFXmgThDZgQMH/HLaEYk2hcFEhsA+EtU2+g0iPXbsmF89bj9xHJFobQSA40+0Erc/YiJ/dkLg/PnzasC9fPmy6jabdJQW8Ndff/lg+PDDD9Vgry9A44AGowMG7TFjxqjTKVOmeLZt2+b5448/lF8BGggCCAkBGgrGibfffludd+7c2a8uaBBIB7FozeDQoUMqLzQgkIlV0EQCwtJEZ+yDLmNHJGy6Uu2yyUtn9bCTXWlJkAd1mknJl9GFB44jEqM2AsDxJ1qJC58sETlbIjB16lRlqoIDGn9wKuP/8LfffuvDA2/5IAsdYJIyEknNmjU9o0aNUsnHjx/3tGnTxtOpUydVnyYSJIK0kLdhw4aeS5cuqfzQQIx1/fzzz6p9mLM2bNigjjWRwHGO/FZBEwk0HF3HiBEj0mS1IxKQFPoNojt8+LDn4sWLquy5c+c80NiQBpKNleAoIrHSRgC4aCWx8rhJP2IdAQysvFbC101oJiCNe++913ctHCIBERm1DfhDdHj11VeVTwV+FwTMhsLgjLd9HXjarhq0MXMqUiJBXWgLYxH8P8ZgRSSQA/4XkBT6D3JdvHixsZgiRZBgrARHEYnWRqBuQt3FX6tWrdQNFK0kVh456UesIoC3eCNh6H7qt3P4JRA++ugjv8Eefg+jpoEBFs50vL1j8P7444890CLgL0H9W7du9SxYsEClYZDWYeDAgZ7vv/9eXYc5DAE+CtTHiwGVYx31aZMS2rAbzHnNh6pnyZIlqh7IgkkB+IOjXAeQhXH6LzQo9AXTfVeuXKmyQUb4aYymMRDQ4MGDdTWujx1DJNBGoKLygh7lgIMqiwcQYfPmzZ677rrLgzzBAuZxw9EnQRAQBDIPAQya0DwwUwpmJB3+/PNPT9OmTdWgjDT4POA0x4AO5zf+r0KDwBs8Bn1oK0jDAA3CePbZZ9U5Xi55QaA6njx5ssqPfCAh5EEbePGECQnXIAv8JRhToLHA8Y4BHmUwtmANB9rAuZGMIDfStEkOAz6c+AgwcyE/+gHZedGhOgdp3H///WqGGGaXvfTSS4r4VCH+Qf1w1KMPkAlkCM0JpBMrIV1Egul7ABXg4ib++uuvGYIL1MhixYopIsHUQTwMaCNYwNQ6vDHgpkkQBASB2EBAawDQKkAIoQQ413ndRihZo54H8oPgoNVs2bIl5D5EXbAMbCDdCxL79euntgPAIpyCBQvyeJ/+wHZFtb0Cvw0QT+2jmTNn0n333QcmCVr5kCFDiFfT0urVq4PmlQyCgCAgCAgC6Ucg3UTCc8GJVTnChmThrlQFMdiVwV43PCuDsEfNnDlziFXXoESC+kaOHEkTJ070I5JA7aQfQqlBEBAEBIFsjgAPsukKmKbHECpnllVFVitTMasBjibYRbEKFaYofYx517CZwrQFWyOCdnxh3x7kgzkNc7J1+PHHH5VNs2XLlsruqU1bsEE+99xzajogyrh13x/dT4kFAUFAEHAiAsEdD0GkDkYkVitTed8az6effqoICKtM4QeBswpOq0GDBqlpeiVKlPAtFtJE0rVrV8+ECRMU0cBRhgCbI4hs3759iszgHNNE8tZbb6ktDJCvb9++fnPXcU2CICAICAKCQPoRiDqR2K1MxUwsEABmdSBgtgaIRAcQBRznCJpIdBrqRFlM48OMDU0qSGcfiY9IMJME2gq2I8CiJ2P9ui6JBQFBQBAQBNKHQNR9JDx7gnhvGWINg3hqL+XJk4e+/PJL4k3aqFKlSsREoj70wjPAiLUT4s3VmCNIfQeANzUjng+exkfCBKJ212SzGLGmQTwXnD755BNVDj4S1lqUjwR+G9ZwiKfvEZu26L333vPVrzLLjyAgCAgCgkD6EUgfD3nUVgYsRRofCc+aUvOu7VamwpyFclojwfcLjBoDf/DFwx+BUeKZNRL4XVAW88yx0Me43QK2MdCmLaxDwZxtbJ+ATeCM9ae331JeEBAEBAFBwItAuk1belM0/dEWVIs53FiYA5MSBnyrlanat4HN2BCwaMc40N96660e1lhUmiYSvZ8O/DIgKGw/oM1cyIN55vCjaGLB+hNsJ409ebp37+4jH+STIAgIAoKAIJAxCKSLSDALCjOsQBaYFQVHN/wVIAS95YHVylRssYyVnSiHVahYOYqyOMe2BdgkDc52/qSl8o+AbFCvXt2qV6sCAhCYXrAIWaCNoH1s26y3csZML70KFStLJQgCgoAgIAhkHAL/DwAA///BxyaFAAASJ0lEQVTt3X1sVFUax/GntJ2+TAsdSt9AefENxBrxZX3NqpjohkiMWY2GrNFE/cMV/cO3ZGOMijGGuDGaaDRGo4m6vhswxABuYsiuomJQcFflRQFTpSAQ0EKhFWHnOd2D0+l0OnPnnnunh+8k9tyZuffccz6H+Ms99965FYfTL3H82r17t6RSKdFd9fb2SjKZHHGPCxYsMOs88MADR9bdtm2bqaOjo+PIZ3ahq6vL7KOvr0/q6uqkvr7efNXT02PeV1VViS43NjbaTSgRQAABBEIQqIgiSIK0M1eQBKmHbRBAAAEE3AoQJG59qR0BBBDwXoAg8X6I6SACCCDgVoAgcetL7QgggID3AgSJ90NMBxFAAAG3AgSJW19qRwABBLwXIEi8H2I6iAACCLgVIEjc+lI7Aggg4L0AQeL9ENNBBBBAwK0AQeLWl9oRQAAB7wUIEu+HmA4igAACbgUIEre+1I4AAgh4L0CQeD/EdBABBBBwK0CQuPWldgQQQMB7AYLE+yGmgwgggIBbAYLErS+1I4AAAt4LECTeDzEdRAABBNwKECRufakdAQQQ8F6AIPF+iOkgAggg4FaAIHHrS+0IIICA9wIEifdDTAcRQAABtwIEiVtfakcAAQS8FyBIvB9iOogAAgi4FSBI3PpSOwIIIOC9AEHi/RDTQQQQQMCtAEHi1pfaEUAAAe8FCBLvh5gOIoAAAm4FCBK3vtSOAAIIeC9AkHg/xHQQAQQQcCtAkLj1pXYEEEDAewGCxPshpoMIIICAWwGCxK0vtSOAAALeCxAk3g8xHUQAAQTcChAkbn2pHQEEEPBegCDxfojpIAIIIOBWgCBx60vtCCCAgPcCBIn3Q0wHEUAAAbcCBIlbX2pHAAEEvBcgSLwfYjqIAAIIuBUgSNz6UjsCCCDgvQBB4v0Q00EEEEDArQBB4taX2hFAAAHvBQgS74eYDiKAAAJuBQgSt77UjgACCHgvQJB4P8R0EAEEEHArQJC49aV2BBBAwHsBgsT7IaaDCCCAgFsBgsStL7UjgAAC3gsQJN4PMR1EAAEE3AoQJG59qR0BBBDwXoAg8X6I6SACCCDgVoAgcetL7QgggID3AmUZJN1d62Tluwulc2qtTDp7vjS0nur9QNBBBBBAYLQKlFWQ2ADp7tpoPC86Y6IpE8lmAmW0/guj3Qgg4L1AWQRJdoBYdRsk9j2BYiUoEUAAgfIRiDVIhgsQy5MdJPZzAsVKUCKAAALxC8QSJBogq5Y/K10bV+UVGC5I7EZNU/8oqWmzOYdiQSgRQACBGAQiDZJCA8Q6jBQkdj0CxUpQIoAAAtELRBIkxQaIZSg0SOz6BIqVoEQAAQSiE3AaJEEDxHa/2CCx2xEoVoISAQQQcC/gJEhKDRDb7aBBYrcnUKwEJQIIIOBOINQgCStAbHdLDRJbD4FiJSgRQACB8AVCCZKfd26RD5e9JJv/szzUFoYVJLZRGihtnddKItlmP6JEAAEEEChRoKQg0QBZveJ1+fqzJSU2I/fmYQeJ7kXvQalvmUmg5CbnUwQQQKBogUBB4jpAbC9cBImtm0CxEpQIIIBAaQJFBUlUAWK75DJI7D4IFCtBiQACCAQTKChIog4Q25UogsTui0CxEpQIIIBAcQJ5gySuALFdiDJI7D4JFCtBiQACCBQmkDNI4g4Q2/Q4gsTum0CxEpQIIIBAfoFBQdK/b7t8uPRFZ1dh5W/K0G/jDBLbGgLFSlAigAACuQVMkJRbgGhTG5MJaR9fJxNbkrlbHvGnGihNUy9K/9rwJdyHErE9u0MAgfIWqNizY/Phl//+l9hbub/voCTrqqX3wEHZ8P3PUlVZYdrUWF9twkQDZcbUptjbqYHC439jHwYagAACZSRQseWbfx1e8uLfYmmShocGx97eg7Jv/68jtkFDpTFZLdOnpEy4jE0vx/GaNvt+noESBzz7RACBshSIPEh0ymrH7v2ydUevHEgHSSkvDZbp6aOUSemjlSinwAiSUkaNbRFAwDeBSIJkzJiKIVNWYUNGOQVGkIQ9etSHAAKjWcBJkBQ7ZRU2YGao6JFK2FNgBEnYI0Z9CCAwmgVCCxKdstr60z450P+bmboqJ5Swp8AIknIaXdqCAAJxC5QUJFFMWYUNlHm0EvQqMIIk7FGhPgQQGM0CRQVJ3FNWYUNnhkoxU2AESdgjQX0IIDCaBUYMkuqqMbJtV68cOiRlN2UVNnyhU2AESdjy1IcAAqNZIGeQ1CaqpCZRKf/+ovvIjYGjuZNB2m6PVnT6K/vSYoIkiCjbIICArwI5g6StuV5mTBm4i/yXfQM3Cm7dsc8YaNnT2y896c97eke+idAHOBsqGigaLASJD6NKHxBAICyBEYMk3458D5lUKiVNqWZJNbdJc0uHTGidJM3tU2XmmX/Kx8J3CCCAwFElUFKQ5JMaDSFDUOQbQb5DAAEEChNwFiT5dh9VyBAU+UaB7xBAAIFwBGIJknxNLyZkCIp8knyHAAIIRCNQdkGi3da74/f09El7+qR/5ktDJpFMyR+ufTHzY5YRQAABBGIUiCVINCj0l39Nqcv/f9/Xfyi9/PsvAud6QqJ9wFQi2SrV6f+0TCTbYiRk1wgggMDRLeA8SDQktnT3mODIDoqR6HMFSa5tNFz0lUi2SFV9S/pZIaeY9xo0Da2nmmX+IIAAAgi4EQgcJDr1pCGhrz17+02pRxmzTppglu0fXefT/263b4sqCw2SkSq1QVPfMtOsqkGjIaMvgsYw8AcBBBAILFBwkGggrN2wa9DUU/Ze9Y74czoH/gdtvyuHILFtGa7UoLFHM1oybTacFJ8jgAACQwUKDhI9Alm7cdfQGjI+Ga1BktGFIYv2aMYGjR7NJFs7OS8zRIoPEEDgaBUgSAKMPD+REgCNTRBAwFsBgiTA0BIkAdDYBAEEvBUgSAIMLUESAI1NEEDAWwGCJMDQEiQB0NgEAQS8FSBIAgwtQRIAjU0QQMBbAYIkwNASJAHQ2AQBBLwVIEgCDC1BEgCNTRBAwFsBgiTA0BIkAdDYBAEEvBUgSAIMLUESAI1NEEDAWwGCJMDQEiQB0NgEAQS8FSBIAgwtQRIAjU0QQMBbAYIkwNASJAHQ2AQBBLwVIEgCDC1BEgCNTRBAwFsBgqSAoc3+mfm2znkFbMUqCCCAwNEhUFSQrP/+Z6OS+TjcTKbR+jPy2UFhn0fCQ68yR5dlBBBAILdAwUGSubk+rEqfhqgv+3REfV6Jvsr1CYn2eSJa6mvgmSI8791g8AcBBBAoQSBQkBS7P31muw2aYp7bXuijdu3Dp/RRugRFsaPD+ggggEBpApEESa4m2mAxRzfpIxz7PjNocgWJhkbT1IvMEYXWW+7TT4cOHZIff/xRjjnmGOnr65PDhw9LXV3dIJKDBw/KDz/8IB0dHVJTUzPoO/umt7dXenp6pK2tTXbv3i2pVMp+RYkAAgjEKhBbkIzUaw2Wpsah/1NtbO+UiWf91TxXfaQ64v7+8ccfl+XLl8v06dPl448/NkHyzDPPyPnnn2+atmvXLrnjjjtkz5490tnZadZpbGwUXWfSpElmnf7+frn11lvNOi0tLbJq1Sr56aefpKurK+7usX8EEEDACJRdkFRUVpuGVVYlZEyiwSxX1TRKZc3Ash23yqr6gfWqkzIm/V11YqxU1TVJdd34dDkh9qDZtGmTzJo1S7Zu3SoNDQ2iRxSXXXaZPProoyZI9L0GzDXXXCOPPfaY7ZbcfPPN8uabb8rmzZulublZXnnlFXnppZfk/fffN+t8++23csYZZ8gvv/xyZBsWEEAAgTgFYgkSGxZV6QCoqEyY/ucKi1JgsoOmbtxkU11UQfPCCy/ITTfdJN3d3dLe3m72raFw3HHHmSBZsGCBPPjgg7J9+3ZpbW090lWdvho7dqzcdttt8uSTT8r1118v69atk5UrV0pVVZVZT8Pm+eefP7INCwgggECcAs6CJIqwKAXOddB8+eWXctppp5ngePXVV+Wcc84x5zb0HMn48ePN0ci4cePMVFV2P44//njZsWOHOep4+umnZf78+TJnzhx57rnnzJSXHpWccMIJ2ZvxHgEEEIhFoKQgKfewKEU0X9DUT5hZUNVPPPGEOQeiK99+++3y0EMPSVNTkzlXUltbK1dddZW8/fbbQ+q6+uqr5Z133pGdO3eKho1Ofy1atMis99RTT8ktt9wilZWVQ7bjAwQQQCAOgRGDJDssxui5i8qaIecs4mh8lPv8rW+vHOzrkf6e7VLMT6R88skncsMNN8iGDRvMlVt6slzPfejVWcMFiR6B6JGInRbToxidyrrrrrvMlVuXX365LF68+MhUV5QO7AsBBBDIFsgZJHqH+kknTpG2jilSU1ebvc1R8f7wb/3Sv2+XaPlr7+5BfS4kSPRoQo8+9LzGgQMHRM+JLFy40Jw30VA488wzTZ2rV68eVLe+ueKKK2TJkiWilw5rmEycONGss23bNrnxxhtl6dKl8vLLL8t11103ZFs+QAABBKIWyBkkmY1oTjWmA6VDmlPjZVx6bt/nlw2PQ/169LFv2K4WEiRvvfWWuefjwgsvPFLPlVdeaa7GWrt2rdx9993mai0NB703xL40dKZMmWKms/Rk+5133ikPP/yw1NcPXKWmV3vpyXud3tIrwHghgAACcQuMGCSZDdRQGTuuSSa2t0hDU6tUV4/J/HpULmdOWRXagUKD5LXXXpM33ngj7TRwSbNe/nvppZfKPffcI3v37jVHJXPnzh10+a+eV7n//vvlq6++kmOPPdacaNcrvXRaS196VZfeY6KXA5977rmFNpn1EEAAAWcCRQVJZiuqqmuktaVZJna0pu+yHj9qpsDsUUeuKavM/uVbLjRIdCorkUjIeeedZ86R6JGE3jOiJ9D1tWXLFnPEocsXXHCBfP7555JMJuWRRx6RCRMm6MfmZP1HH31k3p988smyZs0amT17ttx3333me/4ggAACcQsEDpLshtspsI62FqlrGPgfZfY6cb234THSlFWh7SskSPRnTPQudf35E725cPLkySYkcu3jvffek3nz5pmjDb0DPvNIQ8+1aKhofXrPyYknnsgVW7kQ+QwBBGITCC1IMnugodLSMj79X4fUN6bvNo9hCsyGh15lFfarkCApdp/fffed3HvvveZE+gcffCBnnXVWsVWwPgIIIBCLgJMgyexJ5hRYc0u7s1CxwVHKlFVmu/MtuwgSu7/169fLsmXLZP/+/WZaa7gfcbTrUyKAAAJxCzgPkuwOhjkFZsMjrCmr7LYO995lkAy3Tz5HAAEEylUg8iDJhAgyBWbDw8WUVWbb8i0TJPl0+A4BBI42ARMk//zHfTLc43OjArFTYNMmtw+6tNgGRxRTVoX2dfrcp9K/Lvz7vR+Fbsd6CCCAgI8CFemf3zj8884tsnrF67Jp7dLYA8Ui69HKrBnteW8MtOtGVbae8mdp65wX1e7YDwIIIDAqBEyQ2JaWW6DkekKibWuUJQESpTb7QgCB0SYwKEhs48slUOIOEg2Q1LRLmMay/zAoEUAAgRwCOYPErtfdtU6++XRxbFNecQUJAWL/BVAigAACIwvkDRK7eVyBEnWQECB2xCkRQACBwgUKChJbXdSBElWQECB2hCkRQACB4gWKChJbfVSB4jpICBA7opQIIIBAcIFAQWJ35zpQXAUJAWJHkBIBBBAoXaCkILG7t4Hy9WdL7EehlGEHSUPrDJl09m1chRXK6FAJAgggMCAQSpBYTA2UVcufla6Nq+xHJZVhBQkBUtIwsDECCCCQVyDUILF7CitQSg0SAsSOCCUCCCDgTsBJkNjmlhooQYOEALEjQIkAAgi4F3AaJLb5QQOl2CAhQKw4JQIIIBCdQCRBYrtTbKAUGiQEiBWmRAABBKIXiDRIbPcKDZSRgoQAsaKUCCCAQHwCsQSJ7a4Gysp3F0p310b70aByuCBJJJtl2uwFXMY7SIs3CCCAQDwCsQaJ7fJwgZIdJBogk86eLw2tp9pNKRFAAAEEYhYoiyCxBtmBYoOEALFClAgggED5CZRVkFgeGyidU2s5ArEolAgggECZCpRlkKjVihUrDNnFF19sSv4ggAACCJSnQNkGyemnn27Evvjii/KUo1UIIIAAAkagLINEj0bmzJkjtbW1smjRIuGohH+tCCCAQPkKlGWQ6NHImjVrjNqsWbOEo5Ly/QdEyxBAAIH/AfFsQLQBd2SpAAAAAElFTkSuQmCC;" vertex="1" parent="1">
                    <mxGeometry x="574.6" y="345" width="160.8" height="120" as="geometry"/>
                </mxCell>
                <mxCell id="57" value="Server infrastructure" style="text;html=1;strokeColor=none;fillColor=none;align=center;verticalAlign=middle;whiteSpace=wrap;rounded=0;fontColor=none;fontStyle=0" vertex="1" parent="1">
                    <mxGeometry x="580" y="260" width="130" height="30" as="geometry"/>
                </mxCell>
                <mxCell id="60" value="Deploy server infrastructure" style="text;html=1;strokeColor=none;fillColor=none;align=center;verticalAlign=middle;whiteSpace=wrap;rounded=0;fontColor=#000000;" vertex="1" parent="1">
                    <mxGeometry x="769" y="400" width="150" height="30" as="geometry"/>
                </mxCell>
                <mxCell id="63" value="" style="endArrow=classic;html=1;fontFamily=Times New Roman;fontSize=14;fontColor=#000000;strokeColor=#000000;shadow=1;" edge="1" parent="1">
                    <mxGeometry width="50" height="50" relative="1" as="geometry">
                        <mxPoint x="456" y="431" as="sourcePoint"/>
                        <mxPoint x="556" y="431" as="targetPoint"/>
                    </mxGeometry>
                </mxCell>
                <mxCell id="64" value="Report delivered&amp;nbsp;" style="text;html=1;strokeColor=none;fillColor=none;align=center;verticalAlign=middle;whiteSpace=wrap;rounded=0;fontColor=#000000;" vertex="1" parent="1">
                    <mxGeometry x="432" y="408" width="150" height="24" as="geometry"/>
                </mxCell>
                <mxCell id="66" value="every quarter" style="text;html=1;strokeColor=none;fillColor=none;align=center;verticalAlign=middle;whiteSpace=wrap;rounded=0;fontColor=#000000;" vertex="1" parent="1">
                    <mxGeometry x="430" y="432" width="150" height="24" as="geometry"/>
                </mxCell>
                <mxCell id="70" value="" style="edgeStyle=none;html=1;labelBackgroundColor=none;labelBorderColor=none;fontColor=none;strokeColor=#000000;" edge="1" parent="1">
                    <mxGeometry relative="1" as="geometry">
                        <mxPoint x="699.8773584905662" y="420" as="sourcePoint"/>
                        <mxPoint x="699.5" y="573" as="targetPoint"/>
                    </mxGeometry>
                </mxCell>
                <mxCell id="71" value="" style="shape=actor;whiteSpace=wrap;html=1;glass=1;labelBackgroundColor=default;fontFamily=Times New Roman;fontSize=14;strokeWidth=2;fillColor=none;strokeColor=#000000;" vertex="1" parent="1">
                    <mxGeometry x="680" y="575" width="40" height="60" as="geometry"/>
                </mxCell>
                <mxCell id="72" value="Retrieve report&amp;nbsp; &amp;nbsp; on demand" style="text;html=1;strokeColor=none;fillColor=none;align=center;verticalAlign=middle;whiteSpace=wrap;rounded=0;fontColor=#000000;" vertex="1" parent="1">
                    <mxGeometry x="600" y="520" width="180" height="30" as="geometry"/>
                </mxCell>
                <mxCell id="73" value="User" style="text;html=1;strokeColor=none;fillColor=none;align=center;verticalAlign=middle;whiteSpace=wrap;rounded=0;fontColor=none;" vertex="1" parent="1">
                    <mxGeometry x="720" y="590" width="60" height="30" as="geometry"/>
                </mxCell>
            </root>
        </mxGraphModel>
    </diagram>
</mxfile>